<?xml version="1.0" encoding="utf-8"?>
<!-- Generator: Adobe Illustrator 27.4.1, SVG Export Plug-In . SVG Version: 6.00 Build 0)  -->
<svg version="1.1" id="Layer_1" xmlns="http://www.w3.org/2000/svg" xmlns:xlink="http://www.w3.org/1999/xlink" x="0px" y="0px"
	 viewBox="0 0 1440.3 221.7" style="enable-background:new 0 0 1440.3 221.7;" xml:space="preserve">
<style type="text/css">
	.st0{fill:#7C1A13;}
</style>
<path class="st0" d="M1440,0H0v4.8c8,10.3,25.2,36.8,24,82c-1.5,56.5-2,92,16,84s0.5-47,8.5-84S73,8.2,92.5,8.2s23,133.5,26.5,162.5
	s-13,50.9,11,50.9s1-61.4,11-101.9s29-107.5,59.5-107.5c24.4,0,30.3,57.5,32,90.5c0,15-2.5,47,19.5,47c27.5,0,0-34,0-63
	s23-74.5,41-74.5s29.5,15.5,28,29s-8,50,14,50s8.5-27.5,10.5-44.5s4-41.8,21-42h12c3.5-0.1,22.7,19.3,15.5,51
	c-9,39.5-4.3,72.9,8.6,67.2s0.4-33.8,6.1-60.3s8.8-38.8,22.8-38.8s33.5,1.2,36,22s-11.7,62.1,5.5,62.1s0.8-23,8-52.1
	s14.8-46.7,36.7-46.7c17.5,0,24.2,47.4,25.5,71.1c-2.8,9.2-4.3,27.7,11.5,27.7c19.7,0,0-24.4,0-45.3S571.1,6.3,584,6.3
	s21.1,14,20,23.7c-1.1,9.7-5.7,35.9,10,35.9s6.1-19.8,7.5-32c1.4-12.2-1.9-29.1,15.9-29.1h20.8c10.3,0,7.5,16.6,7.5,29.6
	s25.5,24.8,29.8,5.6c3.7-16.6,9.3-32.8,23.1-35.2h7.3c19.2,2.9,14.3,15.3,23.6,19s27.9-1.9,27.9-6.8s7.5-12.2,18-12.2
	s9.9,15.9,24.8,15.9s22.3-15.9,39.1-15.9S871.8,43,889.8,43s3.1-38.3,20.5-38.3s24.2,13.5,49.7,13.5s29.2-13.4,42.8-13.4
	s14.3,11.6,34.8,11.6c18.3,0,17.3-9.8,29.3-11.6h7.3c15.3,3.2,19.5,33.3,36,33.3c17.4,0,15.5-33.3,27.3-33.3s9.9,15.3,22.3,14.7
	c11.2-0.6,7.6-12.4,17.8-14.7h5.3c11.6,3.3,13,17,14.3,28.7c1.4,12.2-8.2,32,7.5,32s11.1-26.2,10-35.9c-1.1-9.7,7.1-23.7,20-23.7
	s29.4,35.5,29.4,56.3s-19.7,92,0,92c15.8,0,10.7-35,11.5-49.7c1.2-23.7,7.9-95.9,25.4-95.9c21.9,0,19.6,7.6,26.8,36.7
	s-8.2,66.4,9,66.4s11.8-45.6,14.3-66.4s22-22,36-22s13.9,0.3,19.7,26.9s-12.9,92.8,0,98.5s20-11,11-50.5
	c-6.9-30.2,16.5-88.3,21.7-93.5h0.3V4.5c0.1-0.1,0.2-0.2,0.3-0.2c-0.1,0-0.2,0-0.3,0V0z"/>
</svg>
