<?xml version="1.0" encoding="UTF-8"?><svg id="Layer_1" xmlns="http://www.w3.org/2000/svg" width="1440.35" height="398.5" viewBox="0 0 1440.35 398.5"><defs><style>.cls-1{fill:#7c1a13;}</style></defs><path class="cls-1" d="m1440,113.76c.13-.09.25-.15.35-.15-.12,0-.23,0-.35,0V0H0v114c8,10.33,25.2,36.8,24,82-1.5,56.5-2,92,16,84s.5-47,8.5-84,24.5-78.5,44-78.5,23,133.5,26.5,162.5-7.5,118.5,16.5,118.5-4.5-129,5.5-169.5,29-107.5,59.5-107.5c24.4,0,30.33,57.5,32,90.5,0,15-2.5,47,19.5,47,27.5,0,0-34,0-63s23-74.5,41-74.5,29.5,15.5,28,29-8,50,14,50,8.5-27.5,10.5-44.5,4-41.85,21-42h12c3.5-.09,22.72,19.33,15.5,51-9,39.5-4.3,72.94,8.6,67.19,12.9-5.75.36-33.76,6.09-60.34,5.73-26.58,8.83-38.85,22.81-38.85s33.49,1.17,36,22c2.51,20.83-11.7,62.11,5.5,62.11s.83-23.02,8-52.11c7.17-29.09,14.79-46.66,36.65-46.66,17.49,0,24.25,47.41,25.45,71.11-2.75,9.22-4.3,27.66,11.47,27.66,19.71,0,0-24.42,0-45.26s16.53-56.35,29.43-56.35,21.1,13.97,20.03,23.67c-1.08,9.7-5.73,35.92,10.04,35.92s6.09-19.75,7.53-31.97c1.43-12.21-1.93-29.12,15.91-29.12h20.76c10.35,0,7.45,16.56,7.45,29.59s25.45,24.83,29.79,5.59c3.74-16.58,9.34-32.85,23.12-35.18h7.29c19.24,2.9,14.27,15.32,23.58,19.04,9.31,3.72,27.93-1.86,27.93-6.83s7.45-12.21,18-12.21,9.93,15.94,24.83,15.94,22.34-15.94,39.1-15.94,12.41,38.28,30.41,38.28,3.1-38.28,20.48-38.28,24.21,13.45,49.65,13.45,29.17-13.45,42.82-13.45,14.27,11.59,34.76,11.59c18.33,0,17.28-9.76,29.32-11.59h7.28c15.31,3.22,19.5,33.31,36.02,33.31,17.38,0,15.52-33.31,27.31-33.31s9.93,15.32,22.34,14.7c11.22-.56,7.56-12.41,17.81-14.7h5.35c11.56,3.32,12.98,17.04,14.35,28.74,1.44,12.21-8.24,31.97,7.53,31.97s11.11-26.22,10.04-35.92c-1.08-9.7,7.12-23.67,20.02-23.67s29.44,35.52,29.44,56.35-19.72,92.03,0,92.03c15.77,0,10.73-35,11.47-49.66,1.19-23.71,7.95-95.89,25.44-95.89,21.87,0,19.63,7.57,26.8,36.66,7.17,29.09-8.2,66.38,9,66.38s11.84-45.55,14.35-66.38c2.51-20.83,22.02-22,36-22s13.92.3,19.65,26.88-12.9,92.75,0,98.5c12.9,5.75,20-11,11-50.5-6.89-30.2,16.51-88.27,21.72-93.5h.28v-.24Z"/></svg>