<?xml version="1.0" encoding="UTF-8"?>
<svg width="640px" height="478px" viewBox="0 0 640 478" version="1.1" xmlns="http://www.w3.org/2000/svg" xmlns:xlink="http://www.w3.org/1999/xlink">
    <title>Dungeon</title>
    <g id="Dungeon" stroke="none" stroke-width="1" fill="none" fill-rule="evenodd">
        <g id="Group" transform="translate(203.000000, 62.000000)" fill="#1D1D1D">
            <text id="the-Royal" font-family="aliensandcows, aliens and cows" font-size="60" font-weight="normal">
                <tspan x="0.405" y="110">the Royal</tspan>
            </text>
            <g id="crown-copy" transform="translate(78.000000, 0.000000)">
                <path d="M58.937219,27.4506241 C57.7199123,30.0612988 56.5342889,32.6852611 55.3825722,35.3282054 C55.1296614,35.8989346 54.8795299,36.4734602 54.6327335,37.0479858 C54.3270172,37.7009708 53.9829474,38.3425666 53.5855162,38.9487291 C52.848462,40.1148642 51.8997997,41.1177531 50.883154,41.9460064 C50.7375219,42.067492 47.4781736,41.9460064 46,41.9460064 C37.3087088,41.9460064 39.5625852,41.9460064 21.6233762,41.9460064 C18.6930003,41.9460064 15.2055136,41.9460064 11.0970297,41.9460064 C10.7618535,40.7672165 9.18883937,37.1865553 8.84032279,36.0147255 C7.58466257,31.7677917 6.25340705,27.5455347 4.84655622,23.3454235 C4.56752062,22.5108428 4.28570578,21.6724657 4,20.8372523 C4.36241278,20.7638547 4.72482555,20.6942536 5.09057342,20.6246525 C5.10335792,20.6297144 5.35293359,21.5357944 5.80205862,22.8835252 C7.13942847,26.9305139 10.2477295,34.9548903 14.0324972,34.5164032 C18.4826149,34.0943674 18.9172879,24.5811598 18.8394692,19.8191777 C18.8139002,18.2227811 18.7310788,17.1610477 18.7216294,17.1528221 C19.2241159,17.1249816 19.7260464,17.1015703 20.227977,17.0857519 C20.2274212,17.0933448 20.2624396,18.0886408 20.3802793,19.5907595 C20.7554766,24.3483124 21.9900146,34.1975036 25.7147508,33.9773109 C30.5356189,33.8184938 31.747923,19.6287237 32.0130624,12.7129034 C32.098663,10.4875658 32.0853226,9.01328749 32.0636446,9 L33.4188016,9.10440168 C33.3993469,9.11452548 33.2281458,10.5786799 33.0780668,12.7989557 C32.6067079,19.702754 32.3059942,33.9551651 37.0668308,34.8587142 C40.7865644,35.6654545 43.0683197,25.8181615 43.9170993,21.2447352 C44.1705659,19.8773895 44.2995226,18.9732077 44.3000784,18.9573893 C44.7958947,19.0541981 45.2944902,19.1554361 45.7903064,19.2598378 C45.7702959,19.2661652 45.5340606,20.1937583 45.2678095,21.6231122 C44.4479339,26.0617654 43.3595839,35.3446566 47.6913059,36.9688936 C51.9730017,38.6987978 56.2091179,30.7724957 58.0206259,26.8760985 C58.5931492,25.6498533 58.9238786,24.8241309 58.9411099,24.8171708 C59.2929616,24.9424528 59.6448132,25.0671021 60,25.1961806 C59.6437015,25.9466072 59.2907382,26.6964011 58.937219,27.4506241 Z" id="Fill-1"></path>
                <path d="M47.9937681,18.191092 C47.8879609,19.844906 46.4624343,21.0995502 44.808889,20.993774 C43.1553438,20.8879979 41.900421,19.46195 42.0062282,17.808136 C42.1112152,16.155094 43.5375621,14.9004498 45.1911073,15.006226 C46.8454728,15.1120022 48.0995753,16.5372779 47.9937681,18.191092" id="Fill-3"></path>
                <path d="M61.9937681,24.191092 C61.8879609,25.844906 60.4624343,27.0995502 58.808889,26.993774 C57.1553438,26.8879979 55.900421,25.46195 56.0062282,23.808136 C56.1112152,22.155094 57.5375621,20.9004498 59.1911073,21.006226 C60.8454728,21.1120022 62.0995753,22.5372779 61.9937681,24.191092" id="Fill-3"></path>
                <path d="M20.9937718,14.191092 C20.8879645,15.844906 19.4616168,17.0995502 17.8088907,16.993774 C16.1553445,16.8879979 14.900421,15.46195 15.0062282,13.808136 C15.1112153,12.155094 16.537563,10.9004498 18.1911093,11.006226 C19.8446555,11.1120022 21.099579,12.5372779 20.9937718,14.191092" id="Fill-8"></path>
                <path d="M5.99377252,18.191092 C5.88797807,19.844906 4.46180324,21.0995502 2.8092775,20.993774 C1.15593164,20.8879979 -0.0988397662,19.46195 0.0061345739,17.808136 C0.111929026,16.155094 1.53810385,14.9004498 3.19144971,15.006226 C4.84479556,15.1120022 6.09956697,16.53805 5.99377252,18.191092" id="Fill-10"></path>
                <path d="M37.9876376,6.38271425 C37.7769091,9.68969726 34.9240508,12.1981305 31.6176448,11.9876678 C28.3101691,11.7761981 25.8006807,8.92437841 26.012479,5.6173954 C26.2242772,2.31041239 29.0760658,-0.19902782 32.3824718,0.0124418607 C35.6899475,0.223911542 38.1983662,3.07573124 37.9876376,6.38271425" id="Fill-12"></path>
            </g>
        </g>
        <text id="dungeon" font-family="TengkorakCOE, Tengkorak_COE" font-size="140" font-weight="normal" letter-spacing="-7" fill="#1D1D1D">
            <tspan x="72.91" y="322">d</tspan>
            <tspan x="144.31" y="322">ungeon</tspan>
        </text>
        <path d="M162.031161,357.113513 C162.316827,357.30152 162.614118,357.372272 162.908752,357.409807 C163.251883,357.453986 163.968371,357.52806 164.293233,357.407814 C164.615437,357.288566 164.992781,356.809246 165.21467,356.386062 C165.610283,355.63071 165.569758,354.926179 165.552486,354.080809 C165.535877,353.277292 165.336908,352.492377 165.325614,351.680888 C165.313988,350.863752 164.839319,348.782381 164.861242,347.966906 C164.887815,346.967741 164.684196,345.976217 164.752955,344.979045 C164.836661,343.751016 165.062204,342.738897 165.186435,341.512861 C165.309338,340.301773 165.390719,338.986383 165.403342,337.76998 C165.4246,335.771651 165.615266,334.002187 166.262995,332.284208 C166.610444,331.363436 167.089432,330.456947 167.743473,329.537835 C168.370276,328.656922 169.156852,327.641482 170.356979,327.965679 C170.918344,328.117148 171.451808,328.436362 171.96368,328.704423 C172.231741,328.845262 172.500798,329.086417 172.784802,329.182082 C173.196692,329.321261 173.721851,329.202344 174.154335,329.252834 C174.357955,329.277746 174.730649,329.307642 174.904041,329.405632 C175.407277,329.6903 175.560739,330.903714 175.613886,331.432527 C175.65275,331.823822 175.613886,332.250992 175.6099,332.644944 C175.603257,333.430192 175.277731,333.87563 175.003027,334.566542 C174.84425,334.965477 174.473882,335.689606 174.731313,336.109799 C174.845911,336.297143 175.088727,336.360255 175.393326,336.456916 C175.975618,336.641934 176.805044,336.898037 177.365413,336.524346 C177.869646,336.194503 178.103161,335.573346 178.152322,334.957505 C178.175906,334.664532 178.157304,334.372887 178.106483,334.114128 C178.012479,333.637797 177.714191,333.386345 177.703894,332.896064 C177.693264,332.390835 177.735782,332.194855 178.015468,331.776986 C178.708705,330.74228 179.572677,330.124778 180.494114,329.376733 C180.588782,329.300002 180.683782,329.221942 180.779779,329.141889 C181.497596,328.539999 181.846706,327.726185 182.443282,327.032284 C183.123896,326.241057 184.102798,325.846772 184.865458,325.153536 C185.771616,324.330753 189.41149,314.591888 188.134964,313.343597 C187.665277,312.883875 185.445426,313.649193 184.865458,313.343597 C181.336162,311.483118 178.015468,314.426136 175.328885,313.343597 C174.740313,313.106437 174.133409,313.69005 173.566064,313.879718 C168.689822,315.511332 161.64548,310.59822 157.069519,313.343597 C156.708119,313.560836 156.425663,314.624545 156.164551,315.029549 C154.869154,317.038799 151.843733,315.626914 152.32106,318.111206 C152.470204,318.887153 154.594561,325.128291 155.233986,325.889622 C157.162892,328.185575 160.178323,330.632 160.870231,333.695595 C160.904112,333.844406 160.932346,333.994879 160.954269,334.147012 C161.321316,336.652231 161.901948,339.895198 162.229134,342.856485 C162.372631,344.154602 162.467632,345.398907 162.474607,346.502705 C162.479258,347.205906 162.008242,350.517964 161.986319,351.76393 C161.981668,352.050592 161.865409,352.412324 161.709954,352.79764 C161.338589,353.718413 160.743342,354.776703 160.902451,355.287247 C161.223991,356.317968 161.614954,356.840138 162.031161,357.113513 Z" id="Clip-149" fill="#1D1D1D"></path>
        <path d="M519.028441,362.197882 C519.354456,362.714111 519.903669,363.182437 520.44595,363.40809 C521.089663,363.675322 521.747008,363.353865 522.310777,363.008578 C522.867845,362.667667 523.405967,362.191317 523.671909,361.679222 C523.780042,361.47132 523.84335,361.257096 523.844274,361.044331 C523.848433,360.215156 523.422834,359.456739 523.229905,358.686165 C522.968584,357.638875 523.438777,356.671342 523.451947,355.629887 C523.493305,352.426497 524.236833,349.283897 524.236833,346.037225 C524.236833,343.654257 524.503237,341.366851 524.432535,338.957378 C524.379624,337.140973 523.844274,335.47022 523.844274,333.589864 C523.844274,332.348775 523.934385,331.252367 524.236833,330.081065 C524.526342,328.959125 525.118993,328.414933 525.762013,327.55828 C526.18946,326.988799 526.466955,326.228438 526.741677,325.492149 C526.868524,325.151482 526.995141,324.815921 527.135622,324.507108 C527.599113,323.488025 527.081093,322.74939 527.767089,321.871582 C528.057522,321.500277 528.204237,319.601958 528.351649,319.189316 C528.553589,318.624212 528.618977,318.009017 528.542499,317.315282 C528.396935,315.996625 528.335248,316.642584 527.767089,315.688424 C527.655952,315.50192 527.535805,315.309338 527.40734,315.113594 C527.182756,314.772683 526.933219,314.423263 526.662425,314.083568 C526.234054,313.546184 525.753233,313.033603 525.237292,312.618286 C524.826711,312.287588 524.393949,312.018653 523.947324,311.848198 C523.129628,311.535494 521.878246,311.417319 520.747705,311.579993 C519.949648,311.695007 519.211897,311.950082 518.730152,312.375855 C518.349839,312.711416 518.213749,313.307888 517.730386,313.582415 C517.210055,313.878341 516.576509,313.782293 516.001187,313.774512 C515.070969,313.759436 514.078366,313.727582 513.208914,314.131227 C512.482715,314.46849 512.023613,315.054749 511.527774,315.628364 C510.99797,316.241127 510.545605,315.184597 509.923149,315.688424 C509.543298,315.995535 509.003291,314.866165 508.636148,315.194674 C508.574457,315.249628 508.513228,315.305555 508.452461,315.361725 C507.101033,316.619106 513.105865,326.869894 513.99819,326.980045 C514.970461,327.099923 515.707519,327.578949 516.744484,327.603265 C517.521977,327.621502 518.362778,327.493843 519.132415,327.59986 C520.505099,327.789525 520.75764,329.277908 521.141188,330.492978 C521.733607,332.36993 521.686703,334.135029 521.686703,336.11192 C521.686703,338.160543 521.902507,340.35336 521.544375,342.368183 C520.96397,345.633336 521.019423,349.11174 520.552927,352.357683 C520.397429,353.439745 520.273122,354.423327 519.965129,355.470131 C519.854917,355.845084 519.884029,356.365446 519.735,356.708545 C519.652052,356.899426 519.470445,357.518025 519.283985,358.256259 C518.985696,359.438502 518.675623,360.927858 518.74078,361.456001 C518.741704,361.46281 518.742629,361.469375 518.743322,361.476427 C518.776593,361.71448 518.87895,361.961288 519.028441,362.197882 Z" id="Clip-513" fill="#1D1D1D"></path>
        <path d="M329.309828,336.532469 C329.622361,336.537656 329.98839,336.25189 330.138208,335.922718 C330.478046,335.176282 330.455517,334.565471 330.143303,333.823447 C329.920963,333.295035 329.749651,332.698883 329.809674,332.019903 C329.854015,331.51782 329.991892,331.066685 330.018879,330.553074 C330.062423,329.725377 329.977484,328.885725 330.017844,328.051055 C330.061309,327.150493 330.121968,326.275689 330.296465,325.447281 C330.476772,324.591547 330.617038,323.803983 330.671966,322.894882 C330.695609,322.503946 330.669339,322.01894 330.712884,321.635404 C330.78644,320.988872 332.151045,318.726082 332.283589,318.697335 C332.446941,318.661899 332.491998,318.864696 332.631706,318.919914 C332.880077,319.018537 333.205586,318.86313 333.443608,319.010852 C333.663081,319.147189 334.273898,320.732138 334.377147,320.924831 C334.504119,321.163207 335.424364,322.614097 335.764998,322.830698 C336.051739,323.01286 336.156978,323.199006 336.274078,323.706498 C336.371516,324.129027 336.291432,324.391169 336.28586,324.824657 C336.284347,324.945767 336.295492,325.04624 336.316588,325.128213 C336.410523,325.494813 336.700607,325.493106 336.926369,325.340118 C337.108269,325.216732 337.195199,324.994865 337.344301,324.743823 C337.525484,324.438845 337.665909,324.10953 337.795746,323.686004 C337.847331,323.517647 337.959894,323.272725 338.005508,323.086294 C338.054227,322.885916 338.01331,322.668603 338.040535,322.461821 C338.139007,321.713392 338.658118,321.454523 338.838505,320.781663 C339.056864,319.966774 339.458317,319.555772 339.887234,319.142493 C340.330083,318.715693 340.806047,317.965984 341.336143,318.079977 C341.585469,318.13363 341.83583,318.127653 342.09439,318.11214 C342.280907,318.10104 342.471643,318.084816 342.669225,318.082397 C343.258866,318.074996 343.314431,319.049846 343.252418,319.949412 C343.220894,320.406951 343.171539,320.626826 343.267782,321.016908 C343.387987,321.504902 343.852568,321.691476 344.199252,321.336972 C344.277664,321.233937 344.339358,321.078815 344.396913,320.859794 C344.45829,320.626399 344.544503,320.317009 344.575549,320.025123 C344.585978,319.927638 344.590197,319.832145 344.585261,319.742061 C344.553817,319.164409 344.450329,318.896147 344.529059,318.287471 C344.597043,317.762618 344.707218,317.79165 344.933617,317.488094 C345.129448,317.225667 345.24408,317.112243 345.427652,317.06898 C345.545205,317.04107 345.245727,310.222442 344.396913,310.910067 C344.305208,310.984358 343.785813,311.118694 343.716625,311.118694 C342.72929,311.118694 342.053234,311.860435 341.747626,311.753131 C340.701524,311.385534 339.580035,311.873813 339.495414,311.873671 C339.249272,311.873386 337.204035,312.150613 336.926369,311.99108 C336.351137,311.660342 335.799069,311.833253 335.216672,311.861432 C334.630214,311.889325 334.14621,311.629602 333.593824,311.99108 C333.062773,312.338468 332.38453,312.17993 331.820999,312.277273 C331.303958,312.366503 329.630799,313.045767 329.316117,313.137418 C329.122436,313.193632 328.928038,313.172142 328.737063,313.201743 C328.506524,313.237464 328.123858,310.917889 327.923092,311.118694 C327.567412,311.474194 327.880025,314.17332 327.923092,314.961739 C327.952148,315.493565 328.021852,316.273197 328.262581,316.623005 C328.631793,317.159955 328.749959,317.571632 328.803773,318.393352 C328.837605,318.910663 328.857985,319.411181 328.887518,319.908568 C328.92366,320.516533 328.973413,321.120086 329.077936,321.743705 C329.170518,322.296025 329.304017,325.726785 329.281329,325.967295 C329.272254,326.063784 329.265169,326.162408 329.263896,326.266297 C329.256253,326.919517 329.276712,327.490196 329.245586,328.088199 C329.230302,328.378946 329.193524,328.658735 329.165343,328.945497 C329.085419,329.759248 329.181503,330.606442 329.101579,331.418627 C329.022928,332.218146 328.992837,332.467765 329.012022,333.318232 C329.016878,333.534549 328.982011,333.778191 328.950168,334.084735 C328.891419,334.648725 328.755452,335.257685 328.799793,335.819114 C328.840471,336.33372 329.057716,336.527837 329.309828,336.532469 Z" id="Fill-536" fill="#1D1D1D"></path>
    </g>
</svg>