<?xml version="1.0" encoding="utf-8"?>
<!-- Generator: Adobe Illustrator 27.3.1, SVG Export Plug-In . SVG Version: 6.00 Build 0)  -->
<svg version="1.1" id="Layer_1" xmlns="http://www.w3.org/2000/svg" xmlns:xlink="http://www.w3.org/1999/xlink" x="0px" y="0px"
	 viewBox="0 0 800 800" style="enable-background:new 0 0 800 800;" xml:space="preserve">
<style type="text/css">
	.st0{fill:#D1B192;}
</style>
<g>
	<path class="st0" d="M400,700c-59.4,0-102.3,0-136.9-3.4c-36.4-3.5-60.6-10.5-81.2-23.5c-22.1-13.9-41.2-32.9-55.1-55.1
		c-12.9-20.6-19.9-44.9-23.5-81.2C100,502.3,100,459.4,100,400s0-102.3,3.4-136.9c3.5-36.3,10.5-60.6,23.5-81.2
		c13.9-22.1,33-41.2,55.1-55.1c20.6-12.9,44.9-19.9,81.2-23.5c34.6-3.4,77.5-3.4,136.9-3.4s102.3,0,136.9,3.4
		c36.3,3.5,60.6,10.5,81.2,23.5c22.1,13.9,41.2,33,55.1,55.1c12.9,20.6,19.9,44.9,23.5,81.2c3.4,34.6,3.4,77.5,3.4,136.9
		s0,102.3-3.4,136.9c-3.5,36.4-10.5,60.6-23.5,81.2c-13.9,22.1-32.9,41.2-55.1,55.1c-20.6,12.9-44.9,19.9-81.2,23.5
		C502.3,700,459.4,700,400,700z M400,150c-58,0-99.9,0-132.1,3.1c-28.1,2.7-45.9,7.5-59.4,16c-15.8,9.9-29.4,23.5-39.3,39.3
		c-8.5,13.6-13.3,31.3-16,59.4C150,300.1,150,342,150,400s0,99.9,3.1,132.1c2.7,28.1,7.5,45.9,16,59.4c9.9,15.8,23.5,29.4,39.3,39.3
		c13.6,8.5,31.3,13.3,59.4,16C300.1,650,342,650,400,650s99.9,0,132.1-3.1c28.1-2.7,45.9-7.5,59.4-16c15.8-9.9,29.4-23.5,39.3-39.3
		c8.5-13.6,13.3-31.3,16-59.4C650,499.9,650,458,650,400s0-99.9-3.1-132.1c-2.7-28.1-7.5-45.9-16-59.4
		c-9.9-15.8-23.5-29.4-39.3-39.3c-13.6-8.5-31.3-13.3-59.4-16C499.9,150,458,150,400,150z"/>
</g>
<g>
	<path class="st0" d="M400,550c-82.7,0-150-67.3-150-150s67.3-150,150-150s150,67.3,150,150S482.7,550,400,550z M400,300
		c-55.1,0-100,44.9-100,100s44.9,100,100,100s100-44.9,100-100S455.1,300,400,300z"/>
</g>
<g>
	<circle class="st0" cx="562.5" cy="237.5" r="37.5"/>
</g>
</svg>
