<?xml version="1.0" encoding="utf-8"?>
<!-- Generator: Adobe Illustrator 27.4.1, SVG Export Plug-In . SVG Version: 6.00 Build 0)  -->
<svg version="1.1" id="Layer_1" xmlns="http://www.w3.org/2000/svg" xmlns:xlink="http://www.w3.org/1999/xlink" x="0px" y="0px"
	 viewBox="0 0 357.2 136.7" style="enable-background:new 0 0 357.2 136.7;" xml:space="preserve">
<style type="text/css">
	.st0{fill:#201E1E;}
	.st1{fill-rule:evenodd;clip-rule:evenodd;fill:#201E1E;}
</style>
<path class="st0" d="M23.1,79.6c3.6,0.2,6.6,1.7,9,4.4c2.4,2.7,3.6,6.8,3.6,12.3c0,3.6-0.8,6.4-2.3,8.5c-1.5,2.1-3.3,3.6-5.3,4.4
	c-2,0.8-3.8,1.2-5.3,1.2c-1.4,0-3.8,0.2-7.2,0.5c-1.9,0.2-3.5,0.3-4.7,0.4c-0.1,4.8-0.2,8.1-0.2,9.9c0,6.9,0.1,10.6,0.2,11.1
	c0.1,0.5,0,1-0.3,1.4c-0.3,0.4-0.6,0.6-1.1,0.8c-0.4,0.1-0.8,0.1-1.2-0.1c-0.2-0.1-0.6-0.1-1.3-0.1c-1.6,0-3.3,0.1-5.1,0.3
	c-0.8,0.1-1.4-0.1-1.7-0.5C0.1,133.7,0,133,0,132.1c0-1.2,0-2.2,0.1-3.2l0.1-6.6l0.2-9.3c0.3-11.2,0.5-19.9,0.5-26.2
	c0-1.9,0-3-0.1-3.4c-0.1-1.2-0.2-1.8-0.2-2.1c0-1.4,0.3-2.1,0.9-2.1c0.3,0,0.8,0,1.6,0.1c0.8,0.1,2,0.1,3.5,0.1c0.4,0,1.5,0,3.2-0.1
	s3.6-0.1,5.4-0.1C17.9,79.3,20.6,79.4,23.1,79.6L23.1,79.6z M20.7,104.8c2,0,3.8-0.6,5.4-1.7c1.7-1.2,2.5-3.2,2.5-6.2
	c0-3.2-0.7-5.6-2-7.3c-1.3-1.7-3.2-2.8-5.8-3.2c-4-0.8-7.1-1.1-9.3-0.9c0,1.5,0,2.6-0.1,3.3c-0.1,2.9-0.2,5.1-0.4,6.3
	c-0.2,1.8-0.3,3.9-0.2,6.2l0.2,3.1l3.7,0.2C16.3,104.7,18.2,104.8,20.7,104.8z M47.8,84.8c-0.3,7.4-0.4,11.4-0.4,12l-0.1,11.3
	c0,1,0,1.9,0.1,2.6l0.1,4.7c0,1.1,0,1.8-0.1,2.1c0,0.3-0.1,0.6-0.1,0.9c0,0.3,0.1,0.4,0.1,0.6c0,0.2,0,0.3,0.1,0.4l1.9,0.2
	c1.7,0.1,3.1,0.1,4.2,0.1l14.6-0.2c0,0,2.8,0.1,8.3,0.2l3.7,0.1c0.6,0.1,0.9,0.2,0.9,0.5c0,0.1,0,0.2-0.1,0.4s-0.1,0.3-0.1,0.5v3.6
	c0,0.9,0.2,2.9,0.5,6l0.3,3.3l0.1,0.4c0,0.3-0.1,0.4-0.4,0.5c-0.3,0.1-0.7,0.2-1.4,0.2l-5.8-0.1l-9.8-0.2c-1.3,0-3.2,0.1-5.5,0.2
	c-1,0.1-2.2,0.1-3.5,0.2c-1.3,0.1-2.5,0.1-3.8,0.1l-1.3-0.1c-0.3-0.1-0.9-0.1-1.8-0.1l-3.5,0.1c-0.6,0.1-1.5,0.1-2.5,0.1
	c-0.7,0-1.1-0.1-1.3-0.3c-0.1-0.2-0.2-0.4-0.2-0.8c0-0.4,0.1-0.7,0.1-0.9c0-1.2,0.1-3.2,0.2-6l0.2-8.1l-0.2-3.7
	c0-0.7-0.1-1.6-0.2-2.6c0-1.1-0.1-2.1-0.1-3.2c0,1.8,0.2,0,0.5-5.4c0.3-5.4,0.5-8.8,0.5-10L42,85.2l-0.2-5.1v-0.1
	c0-0.4,0.3-0.6,0.9-0.6l1.1,0.1c0.3,0,0.6,0,1,0.1h2.7c0.3,0,0.5,0.2,0.5,0.6L47.8,84.8L47.8,84.8z M126.9,133.3
	c0.3,0.5,0.4,0.9,0.4,1c0,0.4-0.5,0.6-1.4,0.6h-5.7c-0.2,0-0.4-0.2-0.6-0.6c-0.2-0.4-0.4-0.7-0.6-1.1s-0.3-0.7-0.4-0.9
	c-0.3-0.5-0.8-1.7-1.5-3.6c-0.7-1.9-1.2-3.4-1.6-4.5c-0.2-0.5-0.5-1.3-0.9-2.3c-0.5-1.1-0.8-1.8-1-2.2c-0.2-0.6-0.4-1.1-0.6-1.3
	c-0.2-0.2-0.4-0.3-0.8-0.3s-0.8,0-1.4,0.1c-0.5,0.1-1.1,0.1-1.7,0.2c-0.4,0.1-1.7,0.2-3.9,0.2c-1.5,0-3,0.1-4.5,0.2
	c-0.5,0.1-1.3,0.1-2.5,0.1l-4.2-0.1c-0.3,0-0.5,0.1-0.6,0.3c-0.1,0.2-0.2,0.5-0.2,0.8c-0.1,0.3-0.1,0.5-0.2,0.6l-0.5,2
	c-0.2,0.7-0.4,1.6-0.6,2.6c-0.2,0.9-0.4,1.8-0.6,2.7l-0.9,3.4l-0.6,2.3c-0.2,0.6-0.3,1.1-0.5,1.3c-0.1,0.2-0.3,0.2-0.6,0.2H84
	c-0.3,0-0.4-0.1-0.4-0.3c0-0.1,0.1-0.5,0.3-1.1c0.4-1,0.8-2,1.1-3c1.9-6.5,3.1-10.8,3.5-12.8c0.5-2.6,1.4-6,2.9-10.2
	c0.5-1.8,0.9-3.4,1.3-4.9c0.2-0.7,0.4-1.6,0.7-2.7c1-3.7,2-7.1,3-10.3l2-6.3c0.4-1.6,0.9-3.3,1.6-5.1c0.3-0.8,0.7-1,1.1-0.6
	c0.3,0.2,0.6,0.6,0.7,1.1c0.2,0.5,0.3,0.9,0.3,1.1c0.2,0.6,1.6,3.8,4.2,9.5c1.1,2.2,2.2,5,3.4,8.4c0.5,1.5,2,4.8,4.3,9.9
	c1.2,2.5,2,4.2,2.4,5.1c0.8,1.8,3.1,6.3,6.8,13.4l0.9,2C125.4,130.9,126.3,132.6,126.9,133.3L126.9,133.3z M106.2,107.3
	c0.4-0.1,0.7-0.1,0.9-0.1s0.5,0,0.6-0.1c0.2-0.1,0.2-0.1,0.2-0.2s-0.1-0.3-0.2-0.6c-0.3-0.5-0.9-1.8-1.8-3.9c-0.9-2.2-1.6-3.9-2-5
	c-0.5-1.3-0.9-2.3-1.3-3.2c-0.3-0.8-0.5-1.4-0.6-1.7c-0.1-0.3-0.2-0.5-0.4-0.8c-0.1-0.3-0.2-0.5-0.3-0.6c-0.1-0.2-0.2-0.2-0.3-0.2
	c-0.2,0-0.3,0.4-0.6,1.2c-0.2,0.8-0.3,1.4-0.4,1.8c-0.9,3.1-1.6,5.4-2.1,6.9c-0.2,0.8-0.5,1.8-0.9,2.9c-0.4,1.1-0.6,1.9-0.8,2.3
	c-0.2,0.5-0.2,0.9-0.2,1.3s0.2,0.5,0.7,0.5c1.1,0,2.8,0,5.1-0.1C104.2,107.5,105.7,107.4,106.2,107.3L106.2,107.3z M140.6,82.2
	c0.5,1.8,1.2,4,2.1,6.6l0.6,1.8c0.8,2.7,1.4,4.6,1.9,5.6c0.7,1.6,1.4,3.6,2.2,6c0.8,2.5,1.3,3.8,1.3,3.8l0.6-2
	c0.3-1.2,0.7-2.3,1.1-3.4l0.9-2.4l0.8-2.1c0,0,0.3-0.7,0.8-2.1c0.4-1.2,0.7-1.9,0.9-2.3c0.4-0.8,0.9-2.2,1.5-4
	c0.6-1.9,1.1-3.6,1.4-5.1c0.3-1.1,0.6-1.7,0.9-2c0.4-0.3,0.8-0.4,1.3-0.3h2.8c1.2-0.1,2.2,0,3,0.1c1.1,0.2,1.7,0.4,1.7,0.8
	c0,0.1-0.1,0.3-0.2,0.7c-0.1,0.3-0.2,0.6-0.4,1c-0.1,0.4-0.2,0.8-0.4,1.3c-1.3,3.7-2.1,6-2.4,6.9c-0.9,2.3-2.1,5.2-3.5,8.7
	c-1.3,3.5-2.4,6.5-3.4,9c-0.6,1.8-2.1,5.5-4.3,11c-1.9,4.5-2.9,7.1-3.1,7.8c-0.2,0.6-0.4,1.7-0.7,3.1c-0.2,1.4-0.4,2.3-0.5,2.7
	c-0.3,1.1-0.7,1.6-1.3,1.6H144c-0.3,0.1-1.4,0.1-3.2,0.1l-2.9,0.1c-0.6,0-0.9-0.2-0.9-0.5c0-0.2,0-0.3,0.1-0.4
	c0.1-0.2,0.2-0.3,0.2-0.5l0.9-2.4c1.2-3.4,1.8-5.2,1.9-5.3c0.1-0.4,0.6-1.8,1.5-4.3l0.6-1.6c0.1-0.3,0.3-0.6,0.5-1
	c0.2-0.5,0.3-0.8,0.3-1.1c0.1-0.3,0-0.6-0.1-0.9c-0.1-0.2-0.3-0.9-0.7-2.3c-0.1-0.3-0.3-1-0.6-2.1c-0.3-1.1-0.6-1.9-0.9-2.5
	c-0.3-0.8-0.7-2.1-1.3-3.9c-0.4-1.2-0.7-2.3-1-3.2c-0.8-2.3-1.9-5.3-3.2-8.9c-1.2-3.6-2.2-6.6-2.9-8.8c-0.3-0.8-0.6-1.7-1-2.5
	c-0.4-0.8-0.6-1.4-0.6-1.7c0-0.4,0.2-0.6,0.6-0.7c0.4-0.2,1-0.3,1.8-0.3c0.2-0.1,0.6-0.1,1.3-0.1c0.8,0,1.4,0,1.9,0.1
	c1.7,0,2.8,0,3.2,0.1s0.7,0.2,0.8,0.3c0.2,0.2,0.2,0.4,0.2,0.6S140.5,81.9,140.6,82.2L140.6,82.2z M209.1,131.7
	c1.4,1.4,2.1,2.4,2.1,2.9c0,0.1-0.1,0.3-0.4,0.6c-0.5,0.3-1.7,0.5-3.6,0.5c-1.4,0-2.2-0.1-2.6-0.3c-0.4-0.2-0.7-0.4-0.9-0.9
	c-0.2-0.4-0.3-0.7-0.4-0.9c-0.2-0.3-0.8-1.2-2-2.7c-1.1-1.5-1.9-2.7-2.5-3.5c-2.8-3.6-5.2-6.8-7.3-9.7c-1.3-1.8-3.6-4.9-7-9.2
	l-1.3-1.6l-5.4-6.8l-0.3,3.2c-0.2,1.6-0.3,3.5-0.2,5.7c0.2,1.5,0.3,5.3,0.3,11.4c0.1,6.2,0.1,10.7,0.1,13.5c0,0.8-0.3,1.4-0.9,1.6
	c-0.6,0.3-1.4,0.4-2.2,0.4c-0.4,0-0.6-0.2-0.7-0.5c-0.1-0.3-0.2-0.7-0.2-1v-0.7c-0.1-0.8-0.2-2.1-0.2-3.7c0-1.1,0-1.8,0.1-2.4
	c0.1-2.8,0.1-7.8,0.2-14.8c0.1-7.1,0.2-13.5,0.2-19.1c0-6.1-0.1-9.6-0.2-10.6c-0.1-0.4-0.1-1-0.1-1.7c0-0.8,0.1-1.3,0.3-1.5
	c0.3-0.2,0.6-0.3,1.1-0.3c1.1,0,2.1,0,3.1,0.1l8.6,0.2c3.2,0,6.4,0.6,9.9,1.7c3.4,1.1,5.1,3.2,5.1,6.2c0,2.8-1.1,5.1-3.2,6.6
	s-4.5,2.7-7.1,3.2c-2.6,0.6-4.9,0.9-6.8,0.9c-0.7,0-1.1,0-1.1-0.1c0.3,0.3,2.4,3.1,6.2,8.4C201.4,122.1,207.8,130.5,209.1,131.7
	L209.1,131.7z M177.6,95c1.7,0,3.1,0,3.9-0.1c3.1-0.1,5.4-0.3,7.1-0.6c2.4-0.4,4.2-1,5.4-1.7c1.3-0.7,1.9-1.9,1.9-3.5
	c0-1.1-0.6-1.9-1.7-2.7c-1.1-0.8-2.4-1.4-4-1.7c-1.5-0.4-2.9-0.6-4-0.6c-1.3-0.1-3.2-0.1-5.5-0.1h-2.7L177.6,95L177.6,95z
	 M234.2,78.5c5.3,0,9.2,1.5,11.9,4.6c2.6,3,4.3,6.6,5.1,10.7c0.7,4.1,1.1,8.8,1.1,14c0,4.2-0.6,8.6-1.9,13
	c-1.3,4.4-3.2,8.2-5.9,11.2c-2.6,3.1-5.9,4.6-9.7,4.6c-7.5,0-12.5-3.2-15-9.5c-2.5-6.4-3.7-13.2-3.7-20.5s0.9-12.6,2.8-16.8
	c1.9-4.2,4.3-7.2,7-8.8C228.7,79.3,231.5,78.5,234.2,78.5L234.2,78.5z M234.1,116.6c1.4,0,2.5-0.8,3.2-2.4c0.7-1.6,1-3.5,1-5.7
	s-0.3-3.9-1-5.5c-0.6-1.6-1.5-2.4-2.6-2.4c-1.3,0-2.3,0.9-3,2.8c-0.6,1.8-0.9,3.7-0.9,5.8s0.2,3.9,0.6,5.3S232.7,116.6,234.1,116.6
	L234.1,116.6z M290.2,79.8c3.2,2.1,5.7,4.9,7.6,8.5c2,3.6,3.3,7.1,4,10.5c0.8,3.4,1.2,6,1.2,8c0,3.3-0.5,7.1-1.6,11.4
	c-1,4.3-3.2,8.3-6.6,12.1c-3.4,3.7-8.2,5.5-14.6,5.5c-8.7,0-15-5.1-18.6-15.2c-1.6-4.6-2.5-9.7-2.8-15.3c0-4.6,1-9,2.9-13.2
	c2-4.2,4.5-7.6,7.7-10.1c3.2-2.5,6.5-3.8,9.9-3.8c3,0,5.3,0.1,6.8,0.2C287.6,78.5,289,79,290.2,79.8L290.2,79.8z M279.8,131.4
	c5.6,0,9.7-2.3,12.5-6.9c2.7-4.7,4.1-10.6,4.1-17.6c0-4.3-0.7-8.3-2-11.9c-1.3-3.7-3.1-6.6-5.5-8.8c-2.3-2.2-5-3.3-8.1-3.3h-2.1
	c-1.1,0-2.1,0.2-2.9,0.6c-0.8,0.4-1.6,0.9-2.3,1.7c-1.7,1.7-3.2,3.3-4.4,4.8c-1.2,1.4-2.3,3.6-3.5,6.4c-1.2,2.8-1.7,6.1-1.7,9.9
	c0,4.4,0.5,8.6,1.6,12.4c1.1,3.8,2.8,6.9,5.2,9.3C273,130.2,276.1,131.4,279.8,131.4L279.8,131.4z M320.9,83.4
	c0.3,1.4,0.9,3.4,1.8,5.9c1,2.5,2,4.7,2.8,6.6c0.7,1.3,1.7,3.3,2.9,6.2c1.3,2.8,2.2,5,2.7,6.6c0.3,0.8,0.8,1.9,1.3,3.2l1.2,2.8
	l1.7,3.7c1.5-3,2.6-5.2,3.3-6.6l5.1-10.3l3.5-7.1c1.8-3.8,3.1-6.2,3.7-7.3c1-2.1,2-3.9,3.2-5.7c1.1-1.8,1.9-2.7,2.4-2.7
	c0.4,0,0.6,0.3,0.6,1c0,0.6-0.1,1.5-0.4,2.5l-0.3,2c-0.2,1.4-0.3,7.7-0.3,19c0,2.5-0.1,5.5-0.2,9c-0.1,3.5-0.2,5.9-0.3,7
	c-0.1,1.4-0.2,3.4-0.2,6.1l0.1,7.7v0.4c0,0.6-0.2,0.9-0.5,0.8h-0.2c-0.3,0-0.6,0-1,0.1c-0.3,0.1-0.7,0.1-1,0.1
	c-0.2-0.1-0.4-0.2-0.5-0.4c0-0.2-0.1-0.6-0.1-1.1v-4.7c0-5.4,0-8.5,0.2-9.5c0.1-1.1,0.2-3.2,0.3-6.2c0.2-3,0.2-5.4,0.2-7.3
	c0-0.5,0-1.9,0.1-4.4l0.1-2.8l0.2-5.7c-0.4,0.5-0.7,1.1-1,1.7c-0.5,0.9-1,1.9-1.5,2.9l-0.8,1.6c-0.9,1.7-1.9,3.8-3.1,6.2
	c-1.2,2.3-2.2,4.3-3,5.9c-1,1.9-2.2,4.3-3.6,7.3c-1.4,2.9-2.5,5.3-3.3,7c-1.4,3.2-2.2,4.8-2.4,4.8c-0.2,0-0.4-0.3-0.7-0.8
	c-0.3-0.5-0.5-0.9-0.6-1c-0.4-0.6-1-1.8-1.7-3.6c-0.8-1.9-1.4-3.6-1.9-5c-0.3-0.9-1.7-3.6-4.1-8c-1.9-3.6-2.9-5.5-2.9-5.7
	c-0.5-1.1-1.2-2.8-2.1-5.3c-0.6-1.3-1-2.5-1.3-3.5l-0.2,3.5l-0.2,5.4l-0.2,15.6l-0.1,12.3c0,0.5-0.1,0.8-0.4,0.9
	c-0.3,0.1-0.6,0.2-1,0.2c-0.4-0.1-0.7-0.1-0.9-0.1l-1.7,0.1c-1,0.1-1.6,0.2-2,0.2c-0.8,0-1.3-0.2-1.4-0.5c-0.1-0.4-0.1-1.1-0.1-2.2
	c0-1.7,0-3.4-0.1-5l-0.2-9.7c0-1.5,0-3,0.2-4.6c0.1-1.6,0.2-3.1,0.2-4.3c0.3-3.8,0.4-6.4,0.4-8l0.2-14.8l-0.1-4.3
	c0-1.8,0.1-2.9,0.4-3.2c0.2-0.2,0.3-0.2,0.5-0.2c0.2,0,0.4,0.1,0.7,0.2c0.3,0.1,0.7,0.1,1.2,0.1c0.5-0.1,1.1-0.1,2-0.1
	c1,0,1.7,0.1,2.2,0.2c0.5,0.2,0.8,0.6,1,1.2c0.2,0.6,0.4,1.3,0.5,2.1C320.6,82.4,320.7,83,320.9,83.4L320.9,83.4z"/>
<path class="st0" d="M98.8,25.9c-0.6-0.7-0.9-1.5-0.9-2.2s0.2-1.4,0.5-1.9c0.3-0.5,0.9-1,1.7-1.4c0.8-0.4,1.6-0.6,2.6-0.6h12.3
	c0.6,0,1.3-0.1,2-0.2c0.8-0.1,1.3-0.2,1.6-0.4v3.8l-0.3,0v-0.5c0-0.5-0.2-0.9-0.5-1.2c-0.3-0.4-0.7-0.5-1.2-0.6h-5.7v18
	c0,0.7,0.3,1.3,1,1.6c0.3,0.2,0.6,0.2,1,0.2h0.4v0.3h-6.6v-0.3h0.4c0.5,0,1-0.2,1.3-0.5c0.4-0.4,0.6-0.8,0.6-1.3v-18h-6.3
	c-1.6,0-2.8,0.5-3.5,1.5c-0.4,0.5-0.6,1.1-0.6,1.6s0.2,1.1,0.5,1.8C99.1,25.7,98.8,25.9,98.8,25.9z M135.5,40.6c0.5,0,1-0.2,1.3-0.5
	c0.4-0.4,0.6-0.8,0.6-1.3V31h-12.3v7.8c0,0.5,0.2,1,0.6,1.3s0.8,0.5,1.3,0.5h0.4v0.3h-6.6v-0.3h0.4c0.5,0,1-0.2,1.3-0.5
	c0.4-0.4,0.6-0.8,0.6-1.3V22.1c0-0.5-0.2-1-0.6-1.3c-0.4-0.4-0.8-0.5-1.3-0.5h-0.4v-0.3h6.6v0.3h-0.4c-0.5,0-1,0.2-1.3,0.5
	c-0.4,0.4-0.6,0.8-0.6,1.3v8h12.3v-8c0-0.7-0.3-1.3-1-1.6c-0.3-0.2-0.6-0.2-1-0.2h-0.4v-0.3h6.6v0.3h-0.4c-0.5,0-1,0.2-1.4,0.6
	c-0.4,0.4-0.6,0.8-0.6,1.3v16.7c0,0.5,0.2,1,0.6,1.3c0.4,0.4,0.8,0.5,1.4,0.5h0.4v0.3h-6.6v-0.3H135.5z M135.6,40.6
	c0.5,0,1-0.2,1.3-0.5c0.4-0.4,0.6-0.8,0.6-1.3V21.9c0-0.5-0.2-0.9-0.6-1.2c-0.4-0.3-0.8-0.5-1.4-0.5h-0.4l0-0.3h8.8
	c0.6,0,1.3-0.1,2-0.2c0.7-0.1,1.3-0.2,1.6-0.4v3.8h-0.3v-0.5c0-0.5-0.2-0.9-0.5-1.2c-0.3-0.3-0.7-0.5-1.2-0.5h-6.1v9.3h5.1
	c0.4,0,0.7-0.2,1-0.5s0.4-0.6,0.4-1v-0.4h0.3v4.7H146v-0.5c0-0.4-0.1-0.7-0.4-1c-0.3-0.3-0.6-0.4-1-0.5h-5.1v9h4.3
	c1.5,0,2.6-0.3,3.4-1s1.4-1.6,1.9-2.9h0.3l-1.7,4.9h-12.4v-0.3H135.6L135.6,40.6z M186.7,46c-0.8,0.2-1.6,0.3-2.2,0.3
	s-1.2,0-1.7-0.1c-0.5-0.1-1-0.2-1.6-0.5c-0.6-0.2-1.1-0.5-1.6-0.8s-1-0.7-1.5-1.1c-0.9-0.7-1.8-1.5-2.5-2.4
	c-0.7-0.9-2.2-2.5-4.3-4.8c-2.1-2.4-3.6-4-4.3-4.7s-1.2-1.2-1.6-1.2v-0.3c1.2,0,1.9,0,2.3-0.1c0.4-0.1,0.8-0.1,1.3-0.3
	c0.4-0.1,0.8-0.3,1.1-0.5c1.2-0.8,1.8-2,1.8-3.8c0-1.5-0.3-2.6-1-3.5c-0.6-0.9-1.6-1.3-2.7-1.4h-3.7v17.9c0,0.5,0.2,0.9,0.5,1.3
	c0.4,0.4,0.8,0.6,1.4,0.6h0.4l0,0.3H160v-0.3h0.4c0.5,0,0.9-0.2,1.3-0.5s0.6-0.8,0.6-1.3V22.1c0-0.5-0.2-1-0.6-1.3
	c-0.4-0.4-0.8-0.6-1.3-0.6H160v-0.3h8.1c1.8,0,3.2,0.5,4.2,1.5c1.1,1,1.6,2.3,1.6,3.9s-0.5,3-1.5,4.2c-1,1.2-2.2,1.7-3.6,1.7h0
	c0.7,0.7,1.4,1.6,2.3,2.5c3.5,3.8,5.7,6.2,6.7,7.2s1.8,1.8,2.6,2.4c0.8,0.6,1.4,1.1,2,1.4c1.2,0.6,2.4,1,3.5,1c0.2,0,0.5,0,0.7-0.1
	L186.7,46L186.7,46z M181.6,22.5c2.1-2,4.9-3,8.3-3s6.2,1,8.3,3c2.1,2,3.2,4.6,3.2,7.9s-1.1,5.9-3.2,7.9c-2.1,2-4.9,3-8.3,3
	s-6.2-1-8.3-3c-2.1-2-3.2-4.7-3.2-7.9S179.5,24.5,181.6,22.5z M183.2,37.7c1.7,1.8,3.9,2.8,6.7,2.8s5-0.9,6.7-2.8
	c1.7-1.8,2.6-4.3,2.6-7.3s-0.9-5.4-2.6-7.3c-1.7-1.8-3.9-2.8-6.7-2.8s-5,0.9-6.7,2.8c-1.7,1.8-2.5,4.3-2.5,7.3
	S181.6,35.8,183.2,37.7z M221.8,20.2h-0.4c-0.6,0-1.2,0.2-1.7,0.5c-0.5,0.3-1,0.7-1.3,1.2l-5.9,9.6v7.2c0,0.5,0.2,1,0.5,1.3
	c0.4,0.4,0.8,0.5,1.4,0.5h0.4v0.3h-6.5v-0.3h0.4c0.5,0,1-0.2,1.3-0.5c0.4-0.4,0.6-0.8,0.6-1.3v-7.2l-5.7-9.6
	c-0.3-0.5-0.7-0.9-1.3-1.2c-0.5-0.3-1.1-0.5-1.7-0.5h-0.4v-0.3h7.4v0.3h-0.4c-0.4,0-0.8,0.2-1,0.6c-0.1,0.2-0.2,0.4-0.2,0.7
	c0,0.2,0.1,0.4,0.1,0.6l4.5,8.4l4.8-8.4c0.1-0.2,0.1-0.4,0.1-0.6s-0.1-0.4-0.2-0.6c-0.2-0.4-0.6-0.6-1-0.6h-0.4v-0.3h6.7
	C221.8,19.9,221.8,20.2,221.8,20.2z M239.9,40.6h0.2v0.3h-6.8v-0.3h0.3c0.4,0,0.7-0.1,0.9-0.4c0.2-0.3,0.3-0.5,0.3-0.8
	s0-0.5-0.1-0.7l-1.9-5.1h-8.1l-2,5.1c-0.1,0.2-0.1,0.5-0.1,0.7c0,0.2,0.1,0.5,0.3,0.8c0.2,0.3,0.5,0.4,1,0.4h0.3v0.3h-6v-0.3h0.3
	c0.5,0,1-0.2,1.5-0.5s0.9-0.8,1.2-1.4l6.8-16.1c0.7-1.6,1.1-2.6,1.1-3.1h0.3l8,19.2c0.3,0.6,0.7,1.1,1.1,1.4S239.4,40.6,239.9,40.6
	L239.9,40.6z M225.2,32.7h7.4l-3.6-9.6L225.2,32.7z M242,40.6c0.5,0,1-0.2,1.3-0.5c0.4-0.4,0.6-0.8,0.6-1.3V22.1
	c0-0.5-0.2-1-0.6-1.3c-0.4-0.4-0.8-0.6-1.3-0.6h-0.4v-0.3h6.6v0.3h-0.4c-0.7,0-1.3,0.3-1.6,0.9c-0.2,0.3-0.3,0.6-0.3,1V40h4.3
	c1.5,0,2.6-0.3,3.4-1s1.4-1.6,1.9-2.9h0.3l-1.7,4.9h-12.4v-0.3H242z"/>
<path class="st1" d="M109.4,4.1c0.4,1.8,0.8,3.6,1.3,5.4c0.1,0.4,0.2,0.8,0.3,1.2c0.1,0.4,0.2,0.9,0.2,1.4c0.1,0.9,0,1.8-0.2,2.6
	c0,0.1-1.7,1.4-2.5,1.9c-4.4,3.4-3.3,2.5-12.4,9.7c-1.5,1.2-3.3,2.5-5.4,4.2c-0.6-0.5-2.9-1.7-3.5-2.1c-2.3-1.7-4.7-3.3-7.1-4.9
	c-0.5-0.3-0.9-0.6-1.4-0.9c0.2-0.2,0.3-0.4,0.5-0.5c0,0,0.5,0.4,1.3,0.9c2.3,1.5,7.1,4.4,8.8,2.7c2.1-2-1.4-7-3.4-9.4
	c-0.7-0.8-1.1-1.3-1.1-1.3c0.2-0.2,0.5-0.4,0.7-0.6c0,0,0.4,0.5,1.1,1.2c2.1,2.3,6.6,6.8,8.4,5.2c2.4-2-2.6-9.7-5.2-13.3
	c-0.8-1.2-1.4-1.9-1.4-1.9l0.7-0.5c0,0,0.5,0.8,1.3,2c2.5,3.7,8,11.1,10.8,9.6c2.2-1.1-0.5-7-1.9-9.6c-0.4-0.8-0.7-1.3-0.7-1.3
	c0.3-0.2,0.6-0.3,0.9-0.4c0,0,0.2,0.6,0.7,1.4c1.3,2.6,4.5,7.7,7.3,6.9c2.9-0.8,1.9-6.5,1.3-9.2c-0.2-0.8-0.3-1.4-0.3-1.4
	c0.2-0.1,0.5-0.2,0.7-0.2C109.2,3.1,109.3,3.6,109.4,4.1L109.4,4.1z"/>
<path class="st1" d="M100.2,3.7c0.6,0.9,0.4,2.1-0.5,2.7C98.8,7,97.6,6.8,97,5.9c-0.6-0.9-0.4-2.1,0.5-2.7
	C98.4,2.6,99.6,2.9,100.2,3.7z"/>
<path class="st1" d="M109.7,1.2c0.6,0.9,0.4,2.1-0.5,2.7c-0.9,0.6-2.1,0.4-2.7-0.5c-0.6-0.9-0.4-2.1,0.5-2.7
	C107.9,0.1,109.1,0.4,109.7,1.2z"/>
<path class="st1" d="M85.8,12.1c0.6,0.9,0.4,2.1-0.5,2.7c-0.9,0.6-2.1,0.4-2.7-0.5c-0.6-0.9-0.4-2.1,0.5-2.7
	C84,11,85.2,11.2,85.8,12.1z"/>
<path class="st1" d="M79.8,20.6c0.6,0.9,0.4,2.1-0.5,2.7c-0.9,0.6-2.1,0.4-2.7-0.5c-0.6-0.9-0.4-2.1,0.5-2.7
	C78,19.4,79.2,19.7,79.8,20.6z"/>
<path class="st1" d="M90.4,1.7c1.2,1.8,0.7,4.2-1,5.4c-1.8,1.2-4.2,0.7-5.4-1c-1.2-1.8-0.7-4.2,1-5.4C86.8-0.5,89.2-0.1,90.4,1.7z"
	/>
<path class="st0" d="M295.6,55.9v17.5h-30V55.9l7.5,7.5l7.5-7.5l7.5,7.5L295.6,55.9z"/>
<path class="st0" d="M273.6,107.9c-2.5,0-4.5-2-4.5-4.5s2-4.5,4.5-4.5s4.5,2,4.5,4.5S276.1,107.9,273.6,107.9z M273.6,99.9
	c-1.9,0-3.5,1.6-3.5,3.5s1.6,3.5,3.5,3.5s3.5-1.6,3.5-3.5S275.5,99.9,273.6,99.9z"/>
<circle class="st0" cx="273.6" cy="104.4" r="1.5"/>
<rect x="267.8" y="105.5" transform="matrix(0.8944 -0.4473 0.4473 0.8944 -19.0019 131.4598)" class="st0" width="2.2" height="1"/>
<rect x="267.1" y="102.9" class="st0" width="2.2" height="1"/>
<polygon class="st0" points="270.1,108.9 269.3,108.3 270.8,106.6 271.5,107.2 "/>
<path class="st0" d="M286.6,111.9c-2.5,0-4.5-2-4.5-4.5s2-4.5,4.5-4.5s4.5,2,4.5,4.5S289.1,111.9,286.6,111.9z M286.6,103.9
	c-1.9,0-3.5,1.6-3.5,3.5s1.6,3.5,3.5,3.5s3.5-1.6,3.5-3.5S288.5,103.9,286.6,103.9z"/>
<circle class="st0" cx="286.6" cy="107.4" r="0.5"/>
<rect x="290.9" y="108.9" transform="matrix(0.4473 -0.8944 0.8944 0.4473 62.646 321.3838)" class="st0" width="1" height="2.2"/>
<rect x="290.9" y="106.9" class="st0" width="2.2" height="1"/>
<polygon class="st0" points="290.1,112.9 288.6,111.2 289.4,110.6 290.9,112.3 "/>
<path class="st0" d="M284.1,124.4h-2v-1h2V124.4z M280.1,124.4h-2v-1h2V124.4z M276.1,124.4h-2v-1h2V124.4z"/>
<rect x="270.1" y="102.4" class="st0" width="7" height="1"/>
</svg>
