<?xml version="1.0" encoding="UTF-8"?>
<svg width="640px" height="478px" viewBox="0 0 640 478" version="1.1" xmlns="http://www.w3.org/2000/svg" xmlns:xlink="http://www.w3.org/1999/xlink">
    <title>Playroom</title>
    <g id="Playroom" stroke="none" stroke-width="1" fill="none" fill-rule="evenodd">
        <g id="Group-2" transform="translate(63.730692, 58.000000)">
            <g id="Group" transform="translate(141.334308, 0.000000)" fill="#1D1D1D">
                <path d="M6.33,110 C6.63,110 6.885,109.895 7.095,109.685 C7.305,109.475 7.41,109.22 7.41,108.92 L7.41,108.92 L7.41,77.96 L9.27,77.96 C9.73,77.96 10.1,77.8 10.38,77.48 C10.66,77.16 10.8,76.74 10.8,76.22 L10.8,76.22 L10.8,75.2 C10.8,75 10.74,74.85 10.62,74.75 C10.5,74.65 10.35,74.6 10.17,74.6 L10.17,74.6 L0.63,74.6 C0.45,74.6 0.3,74.65 0.18,74.75 C0.06,74.85 0,75 0,75.2 L0,75.2 L0,76.22 C0,76.74 0.14,77.16 0.42,77.48 C0.7,77.8 1.07,77.96 1.53,77.96 L1.53,77.96 L3.39,77.96 L3.39,108.92 C3.39,109.22 3.495,109.475 3.705,109.685 C3.915,109.895 4.17,110 4.47,110 L4.47,110 L6.33,110 Z M27.24,110 C27.82,110 28.255,109.835 28.545,109.505 C28.835,109.175 28.98,108.75 28.98,108.23 L28.98,108.23 L28.98,93.89 L32.46,93.89 L32.46,108.23 C32.46,108.75 32.605,109.175 32.895,109.505 C33.185,109.835 33.62,110 34.2,110 L34.2,110 L35.88,110 C36.08,110 36.23,109.94 36.33,109.82 C36.43,109.7 36.48,109.55 36.48,109.37 L36.48,109.37 L36.48,75.23 C36.48,75.05 36.43,74.9 36.33,74.78 C36.23,74.66 36.08,74.6 35.88,74.6 L35.88,74.6 L34.2,74.6 C33.68,74.6 33.26,74.74 32.94,75.02 C32.62,75.3 32.46,75.67 32.46,76.13 L32.46,76.13 L32.46,90.53 L28.98,90.53 L28.98,76.13 C28.98,75.67 28.82,75.3 28.5,75.02 C28.18,74.74 27.76,74.6 27.24,74.6 L27.24,74.6 L25.56,74.6 C25.36,74.6 25.21,74.66 25.11,74.78 C25.01,74.9 24.96,75.05 24.96,75.23 L24.96,75.23 L24.96,109.37 C24.96,109.55 25.01,109.7 25.11,109.82 C25.21,109.94 25.36,110 25.56,110 L25.56,110 L27.24,110 Z M60.09,110 C60.27,110 60.42,109.95 60.54,109.85 C60.66,109.75 60.72,109.6 60.72,109.4 L60.72,109.4 L60.72,108.38 C60.72,107.86 60.58,107.44 60.3,107.12 C60.02,106.8 59.65,106.64 59.19,106.64 L59.19,106.64 L55.5,106.64 L55.5,94.19 L58.59,94.19 C59.05,94.19 59.42,94.03 59.7,93.71 C59.98,93.39 60.12,92.97 60.12,92.45 L60.12,92.45 L60.12,91.43 C60.12,91.23 60.06,91.08 59.94,90.98 C59.82,90.88 59.67,90.83 59.49,90.83 L59.49,90.83 L55.5,90.83 L55.5,77.96 L59.19,77.96 C59.65,77.96 60.02,77.8 60.3,77.48 C60.58,77.16 60.72,76.74 60.72,76.22 L60.72,76.22 L60.72,75.2 C60.72,75 60.66,74.85 60.54,74.75 C60.42,74.65 60.27,74.6 60.09,74.6 L60.09,74.6 L52.08,74.6 C51.88,74.6 51.73,74.66 51.63,74.78 C51.53,74.9 51.48,75.05 51.48,75.23 L51.48,75.23 L51.48,109.37 C51.48,109.55 51.53,109.7 51.63,109.82 C51.73,109.94 51.88,110 52.08,110 L52.08,110 L60.09,110 Z M99.12,110 C99.7,110 100.135,109.835 100.425,109.505 C100.715,109.175 100.86,108.75 100.86,108.23 L100.86,108.23 L100.86,92.54 L102.6,92.54 C103.22,92.54 103.665,92.705 103.935,93.035 C104.205,93.365 104.34,93.8 104.34,94.34 L104.34,94.34 L104.34,108.23 C104.34,108.75 104.485,109.175 104.775,109.505 C105.065,109.835 105.5,110 106.08,110 L106.08,110 L107.76,110 C107.96,110 108.11,109.94 108.21,109.82 C108.31,109.7 108.36,109.55 108.36,109.37 L108.36,109.37 L108.36,94.34 C108.36,93.48 108.185,92.775 107.835,92.225 C107.485,91.675 107,91.23 106.38,90.89 C107,90.55 107.485,90.1 107.835,89.54 C108.185,88.98 108.36,88.26 108.36,87.38 L108.36,87.38 L108.36,73.16 C108.36,72.38 108.225,71.67 107.955,71.03 C107.685,70.39 107.3,69.85 106.8,69.41 C106.3,68.97 105.7,68.625 105,68.375 C104.3,68.125 103.52,68 102.66,68 L102.66,68 L97.44,68 C97.24,68 97.09,68.06 96.99,68.18 C96.89,68.3 96.84,68.45 96.84,68.63 L96.84,68.63 L96.84,109.37 C96.84,109.55 96.89,109.7 96.99,109.82 C97.09,109.94 97.24,110 97.44,110 L97.44,110 L99.12,110 Z M102.6,89.18 L100.86,89.18 L100.86,71.36 L102.6,71.36 C103.18,71.36 103.615,71.53 103.905,71.87 C104.195,72.21 104.34,72.64 104.34,73.16 L104.34,73.16 L104.34,87.38 C104.34,87.9 104.2,88.33 103.92,88.67 C103.64,89.01 103.2,89.18 102.6,89.18 L102.6,89.18 Z M129.12,110.48 C130.94,110.48 132.355,110.02 133.365,109.1 C134.375,108.18 134.88,106.92 134.88,105.32 L134.88,105.32 L134.88,79.28 C134.88,78.48 134.745,77.765 134.475,77.135 C134.205,76.505 133.815,75.965 133.305,75.515 C132.795,75.065 132.185,74.72 131.475,74.48 C130.765,74.24 129.98,74.12 129.12,74.12 C127.3,74.12 125.885,74.58 124.875,75.5 C123.865,76.42 123.36,77.68 123.36,79.28 L123.36,79.28 L123.36,105.32 C123.36,106.12 123.495,106.835 123.765,107.465 C124.035,108.095 124.425,108.635 124.935,109.085 C125.445,109.535 126.05,109.88 126.75,110.12 C127.45,110.36 128.24,110.48 129.12,110.48 Z M129.12,107.12 C128.52,107.12 128.08,106.955 127.8,106.625 C127.52,106.295 127.38,105.86 127.38,105.32 L127.38,105.32 L127.38,79.28 C127.38,78.74 127.525,78.305 127.815,77.975 C128.105,77.645 128.54,77.48 129.12,77.48 C129.72,77.48 130.16,77.645 130.44,77.975 C130.72,78.305 130.86,78.74 130.86,79.28 L130.86,79.28 L130.86,105.32 C130.86,105.86 130.715,106.295 130.425,106.625 C130.135,106.955 129.7,107.12 129.12,107.12 Z M155.37,110 C155.67,110 155.925,109.895 156.135,109.685 C156.345,109.475 156.45,109.22 156.45,108.92 L156.45,108.92 L156.45,95.75 L159.54,75.23 C159.58,75.05 159.54,74.9 159.42,74.78 C159.3,74.66 159.14,74.6 158.94,74.6 L158.94,74.6 L157.26,74.6 C156.68,74.6 156.255,74.765 155.985,75.095 C155.715,75.425 155.56,75.85 155.52,76.37 L155.52,76.37 L154.44,89.09 L153.39,76.37 C153.35,75.85 153.195,75.425 152.925,75.095 C152.655,74.765 152.23,74.6 151.65,74.6 L151.65,74.6 L149.97,74.6 C149.77,74.6 149.61,74.66 149.49,74.78 C149.37,74.9 149.33,75.05 149.37,75.23 L149.37,75.23 L152.43,95.75 L152.43,108.92 C152.43,109.22 152.535,109.475 152.745,109.685 C152.955,109.895 153.21,110 153.51,110 L153.51,110 L155.37,110 Z M175.47,110 C175.97,110 176.385,109.855 176.715,109.565 C177.045,109.275 177.23,108.92 177.27,108.5 L177.27,108.5 L177.57,103.67 L180.06,103.67 L180.36,108.5 C180.4,108.92 180.585,109.275 180.915,109.565 C181.245,109.855 181.66,110 182.16,110 L182.16,110 L183.63,110 C183.91,110 184.115,109.92 184.245,109.76 C184.375,109.6 184.43,109.43 184.41,109.25 L184.41,109.25 L181.11,75.2 C181.09,75.04 181.03,74.9 180.93,74.78 C180.83,74.66 180.69,74.6 180.51,74.6 L180.51,74.6 L177.12,74.6 C176.94,74.6 176.8,74.66 176.7,74.78 C176.6,74.9 176.54,75.04 176.52,75.2 L176.52,75.2 L173.22,109.25 C173.2,109.43 173.255,109.6 173.385,109.76 C173.515,109.92 173.72,110 174,110 L174,110 L175.47,110 Z M179.85,100.31 L177.78,100.31 L178.8,83.24 L179.85,100.31 Z M207.24,110 C207.42,110 207.57,109.95 207.69,109.85 C207.81,109.75 207.87,109.6 207.87,109.4 L207.87,109.4 L207.87,108.38 C207.87,107.86 207.73,107.44 207.45,107.12 C207.17,106.8 206.8,106.64 206.34,106.64 L206.34,106.64 L202.65,106.64 L202.65,76.13 C202.65,75.67 202.49,75.3 202.17,75.02 C201.85,74.74 201.43,74.6 200.91,74.6 L200.91,74.6 L199.23,74.6 C199.03,74.6 198.88,74.66 198.78,74.78 C198.68,74.9 198.63,75.05 198.63,75.23 L198.63,75.23 L198.63,109.37 C198.63,109.55 198.68,109.7 198.78,109.82 C198.88,109.94 199.03,110 199.23,110 L199.23,110 L207.24,110 Z" id="theRoyal" fill-rule="nonzero"></path>
                <g id="crown-copy" transform="translate(70.935000, 0.000000)">
                    <path d="M58.937219,27.4506241 C57.7199123,30.0612988 56.5342889,32.6852611 55.3825722,35.3282054 C55.1296614,35.8989346 54.8795299,36.4734602 54.6327335,37.0479858 C54.3270172,37.7009708 53.9829474,38.3425666 53.5855162,38.9487291 C52.848462,40.1148642 51.8997997,41.1177531 50.883154,41.9460064 C50.7375219,42.067492 47.4781736,41.9460064 46,41.9460064 C37.3087088,41.9460064 39.5625852,41.9460064 21.6233762,41.9460064 C18.6930003,41.9460064 15.2055136,41.9460064 11.0970297,41.9460064 C10.7618535,40.7672165 9.18883937,37.1865553 8.84032279,36.0147255 C7.58466257,31.7677917 6.25340705,27.5455347 4.84655622,23.3454235 C4.56752062,22.5108428 4.28570578,21.6724657 4,20.8372523 C4.36241278,20.7638547 4.72482555,20.6942536 5.09057342,20.6246525 C5.10335792,20.6297144 5.35293359,21.5357944 5.80205862,22.8835252 C7.13942847,26.9305139 10.2477295,34.9548903 14.0324972,34.5164032 C18.4826149,34.0943674 18.9172879,24.5811598 18.8394692,19.8191777 C18.8139002,18.2227811 18.7310788,17.1610477 18.7216294,17.1528221 C19.2241159,17.1249816 19.7260464,17.1015703 20.227977,17.0857519 C20.2274212,17.0933448 20.2624396,18.0886408 20.3802793,19.5907595 C20.7554766,24.3483124 21.9900146,34.1975036 25.7147508,33.9773109 C30.5356189,33.8184938 31.747923,19.6287237 32.0130624,12.7129034 C32.098663,10.4875658 32.0853226,9.01328749 32.0636446,9 L33.4188016,9.10440168 C33.3993469,9.11452548 33.2281458,10.5786799 33.0780668,12.7989557 C32.6067079,19.702754 32.3059942,33.9551651 37.0668308,34.8587142 C40.7865644,35.6654545 43.0683197,25.8181615 43.9170993,21.2447352 C44.1705659,19.8773895 44.2995226,18.9732077 44.3000784,18.9573893 C44.7958947,19.0541981 45.2944902,19.1554361 45.7903064,19.2598378 C45.7702959,19.2661652 45.5340606,20.1937583 45.2678095,21.6231122 C44.4479339,26.0617654 43.3595839,35.3446566 47.6913059,36.9688936 C51.9730017,38.6987978 56.2091179,30.7724957 58.0206259,26.8760985 C58.5931492,25.6498533 58.9238786,24.8241309 58.9411099,24.8171708 C59.2929616,24.9424528 59.6448132,25.0671021 60,25.1961806 C59.6437015,25.9466072 59.2907382,26.6964011 58.937219,27.4506241 Z" id="Fill-1"></path>
                    <path d="M47.9937681,18.191092 C47.8879609,19.844906 46.4624343,21.0995502 44.808889,20.993774 C43.1553438,20.8879979 41.900421,19.46195 42.0062282,17.808136 C42.1112152,16.155094 43.5375621,14.9004498 45.1911073,15.006226 C46.8454728,15.1120022 48.0995753,16.5372779 47.9937681,18.191092" id="Fill-3"></path>
                    <path d="M61.9937681,24.191092 C61.8879609,25.844906 60.4624343,27.0995502 58.808889,26.993774 C57.1553438,26.8879979 55.900421,25.46195 56.0062282,23.808136 C56.1112152,22.155094 57.5375621,20.9004498 59.1911073,21.006226 C60.8454728,21.1120022 62.0995753,22.5372779 61.9937681,24.191092" id="Fill-3"></path>
                    <path d="M20.9937718,14.191092 C20.8879645,15.844906 19.4616168,17.0995502 17.8088907,16.993774 C16.1553445,16.8879979 14.900421,15.46195 15.0062282,13.808136 C15.1112153,12.155094 16.537563,10.9004498 18.1911093,11.006226 C19.8446555,11.1120022 21.099579,12.5372779 20.9937718,14.191092" id="Fill-8"></path>
                    <path d="M5.99377252,18.191092 C5.88797807,19.844906 4.46180324,21.0995502 2.8092775,20.993774 C1.15593164,20.8879979 -0.0988397662,19.46195 0.0061345739,17.808136 C0.111929026,16.155094 1.53810385,14.9004498 3.19144971,15.006226 C4.84479556,15.1120022 6.09956697,16.53805 5.99377252,18.191092" id="Fill-10"></path>
                    <path d="M37.9876376,6.38271425 C37.7769091,9.68969726 34.9240508,12.1981305 31.6176448,11.9876678 C28.3101691,11.7761981 25.8006807,8.92437841 26.012479,5.6173954 C26.2242772,2.31041239 29.0760658,-0.19902782 32.3824718,0.0124418607 C35.6899475,0.223911542 38.1983662,3.07573124 37.9876376,6.38271425" id="Fill-12"></path>
                </g>
            </g>
            <text id="p" font-family="ChildhoodBold, Childhood" font-size="100" font-weight="bold" fill="#1D1D1D">
                <tspan x="2.96930779" y="235">p</tspan>
            </text>
            <text id="l" font-family="ChildhoodBold, Childhood" font-size="110" font-weight="bold" fill="#1D1D1D">
                <tspan x="47.0543078" y="232">l</tspan>
            </text>
            <text id="a" transform="translate(131.269308, 224.000000) rotate(10.000000) translate(-131.269308, -224.000000) " font-family="ChildhoodBold, Childhood" font-size="100" font-weight="bold" fill="#1D1D1D">
                <tspan x="101.419308" y="244">a</tspan>
            </text>
            <text id="y" transform="translate(191.269308, 213.000000) rotate(-5.000000) translate(-191.269308, -213.000000) " font-family="ChildhoodBold, Childhood" font-size="90" font-weight="bold" fill="#1D1D1D">
                <tspan x="159.499308" y="231">y</tspan>
            </text>
            <text id="r" font-family="ChildhoodBold, Childhood" font-size="110" font-weight="bold" fill="#1D1D1D">
                <tspan x="225.454308" y="244">r</tspan>
            </text>
            <text id="o" font-family="ChildhoodBold, Childhood" font-size="100" font-weight="bold" fill="#1D1D1D">
                <tspan x="273.819308" y="235">o</tspan>
            </text>
            <text id="o" transform="translate(362.269308, 225.000000) rotate(14.000000) translate(-362.269308, -225.000000) " font-family="ChildhoodBold, Childhood" font-size="100" font-weight="bold" fill="#1D1D1D">
                <tspan x="332.819308" y="245">o</tspan>
            </text>
            <text id="m" transform="translate(439.419651, 205.292456) rotate(2.000000) translate(-439.419651, -205.292456) " font-family="ChildhoodBold, Childhood" font-size="100" font-weight="bold" fill="#1D1D1D">
                <tspan x="389.919651" y="225.292456">m</tspan>
            </text>
            <path d="M490.658506,289.394364 C492.058506,289.394364 493.358506,289.194364 494.758506,288.994364 C496.258506,288.794364 497.858506,288.794364 499.358506,287.794364 C499.658506,287.594364 500.358506,287.694364 500.858506,287.694364 C501.058506,287.694364 501.358506,287.894364 501.558506,287.994364 C501.958506,288.094364 502.258506,287.794364 502.258506,287.494364 C502.358506,287.094364 502.258506,286.794364 502.158506,286.494364 C501.858506,285.594364 501.458506,284.794364 501.158506,283.894364 C500.158506,280.694364 499.058506,277.494364 497.458506,274.494364 C497.358506,274.294364 497.258506,274.094364 497.158506,273.794364 C496.358506,271.594364 495.558506,269.294364 494.758506,267.094364 C493.958506,265.094364 493.458506,263.094364 492.958506,260.994364 C492.758506,259.694364 492.558506,258.294364 492.258506,256.994364 C491.758506,254.694364 491.158506,252.494364 490.658506,250.194364 L489.158506,242.994364 C488.958506,242.094364 488.758506,241.294364 488.558506,240.394364 C488.258506,238.694364 487.280913,237.683145 486.880913,235.983145 C486.480913,234.083145 486.291055,232.313716 485.891055,230.413716 C485.591055,229.413716 485.197787,227.566329 484.897787,226.566329 C484.397787,224.866329 484.613332,223.469728 483.313332,222.169728 C483.252319,221.559607 482.533025,221.267804 482.138873,221.175062 C481.887003,221.115798 482.30729,223.912945 481.995387,223.912945 C481.594362,223.889355 480.771022,220.667766 480.573632,221.537934 C480.336685,222.582481 480.709015,224.542643 480.410454,224.651549 C479.903381,224.836514 478.969266,221.411005 478.151681,221.411005 C477.823923,221.411005 477.911243,223.235976 477.327221,223.093962 C476.485746,222.889344 474.930748,220.694364 474.458506,220.694364 C473.864773,220.694364 473.292112,219.01896 472.735227,219.006593 C472.423154,218.999998 475.283903,227.106813 474.978392,227.545658 C474.727221,227.906447 473.362543,220.724768 473.111795,220.701973 C472.311795,220.701973 472.798896,220.808209 472.598896,221.608209 C471.998896,223.808209 474.146522,236.08623 474.546522,235.78623 C474.746522,235.58623 475.358506,244.694364 475.658506,244.694364 C475.758506,244.694364 476.058506,245.094364 476.158506,245.394364 C476.358506,245.794364 476.358506,246.194364 476.458506,246.594364 C476.558506,246.994364 476.658506,247.494364 476.758506,247.994364 C476.858506,248.494364 477.158506,248.994364 477.158506,249.494364 C477.058506,251.094364 477.858506,252.594364 477.958506,254.294364 C477.958506,254.894364 478.258506,255.494364 478.358506,256.094364 C478.558506,257.094364 478.758506,258.094364 478.958506,259.194364 C479.258506,261.294364 479.758506,263.394364 481.058506,265.194364 C481.258506,265.494364 481.358506,265.894364 481.458506,266.194364 L482.358506,268.594364 C482.458506,268.894364 482.658506,269.094364 482.658506,269.294364 C482.858506,271.294364 483.758506,272.994364 484.458506,274.794364 C484.858506,275.994364 485.358506,277.194364 485.658506,278.394364 C486.058506,279.594364 486.258506,280.794364 486.758506,281.994364 C487.358506,283.294364 487.658506,284.594364 488.158506,285.894364 C488.458506,286.694364 488.658506,287.594364 489.058506,288.394364 C489.358506,289.294364 489.758506,289.394364 490.658506,289.394364 Z M475.258506,223.494364 C475.158506,223.294364 475.058506,223.094364 474.858506,222.994364 C474.658506,222.894364 474.458506,222.894364 473.958506,222.794364 C474.958506,222.394364 475.858506,222.294364 476.658506,222.594364 C475.658506,222.594364 475.658506,222.594364 475.258506,223.494364 Z M483.749706,226.044764 C483.618506,225.990364 483.538506,225.974364 483.458506,225.894364 L483.458506,225.894364 L481.958506,223.194364 C481.858506,223.094364 481.858506,222.894364 481.858506,222.594364 C483.058506,223.494364 483.358506,224.794364 483.858506,226.094364 L483.858506,226.094364 L483.749706,226.044764 Z M486.218506,237.093564 L486.158506,237.094364 C485.458506,235.994364 485.258506,234.794364 485.158506,233.594364 C485.658506,233.294364 485.758506,233.794364 485.858506,233.994364 L485.858506,233.994364 L486.458506,236.994364 C486.358506,237.094364 486.258506,237.094364 486.158506,237.094364 L486.218506,237.093564 Z M475.658506,235.794364 C475.358506,235.194364 475.158506,234.494364 474.958506,233.894364 C475.058506,233.894364 475.058506,233.894364 475.158506,233.794364 C475.358506,234.494364 475.658506,235.094364 475.858506,235.694364 C475.758506,235.694364 475.658506,235.694364 475.658506,235.794364 Z M481.925013,232.069749 C481.325013,229.669749 480.925013,226.869749 480.525013,224.469749 C480.725013,224.469749 480.725013,224.469749 480.925013,224.069749 C481.325013,226.869749 481.925013,229.269749 482.325013,231.669749 C482.125013,231.669749 481.925013,231.669749 481.925013,232.069749 Z M478.058506,236.994364 C477.958506,236.894364 477.858506,236.894364 477.758506,236.794364 C477.758506,236.694364 477.758506,236.594364 477.658506,236.294364 C477.958506,236.594364 478.058506,236.694364 478.158506,236.894364 C478.058506,236.894364 478.058506,236.894364 478.058506,236.994364 Z M478.046691,231.304207 C477.446691,230.204207 476.846691,230.204207 476.246691,229.104207 C476.246691,228.004207 476.246691,226.904207 475.646691,223.604207 C477.446691,226.904207 478.046691,228.004207 478.646691,230.204207 C478.046691,230.204207 478.046691,230.204207 478.046691,231.304207 Z M480.038873,229.11218 C479.738873,228.41218 479.438873,228.41218 479.138873,227.71218 C479.138873,227.01218 479.138873,226.31218 478.838873,224.21218 C479.738873,226.31218 480.038873,227.01218 480.338873,228.41218 C480.038873,228.41218 480.038873,228.41218 480.038873,229.11218 Z M485.458506,242.194364 C484.658506,241.294364 484.158506,239.694364 484.258506,238.794364 C485.458506,239.694364 485.458506,240.994364 485.458506,242.194364 Z M479.558506,240.394364 L479.258506,240.394364 C479.258506,240.194364 479.258506,239.994364 479.158506,239.794364 C479.258506,239.694364 479.358506,239.694364 479.358506,239.694364 C479.458506,239.894364 479.458506,240.094364 479.558506,240.394364 L479.558506,240.394364 Z M474.700803,231.997199 L473.800803,231.997199 C473.800803,230.397199 473.800803,228.797199 473.500803,227.197199 C473.800803,226.397199 474.100803,226.397199 474.100803,226.397199 C474.400803,227.997199 474.400803,229.597199 474.700803,231.997199 L474.700803,231.997199 Z M487.958506,245.994364 C487.558506,244.794364 487.258506,243.594364 486.858506,242.294364 C487.058506,242.294364 487.258506,242.294364 487.258506,242.394364 C487.758506,243.494364 488.058506,244.694364 487.958506,245.994364 Z M478.958506,243.494364 C477.958506,243.194364 477.958506,243.194364 478.358506,242.494364 C478.558506,242.794364 478.658506,243.094364 478.958506,243.494364 Z M484.358506,244.094364 C482.958506,244.294364 482.858506,244.094364 482.458506,242.494364 C482.758506,242.894364 482.858506,243.194364 483.158506,243.494364 C483.258506,243.294364 483.358506,243.094364 483.658506,242.694364 C483.858506,243.294364 484.058506,243.594364 484.358506,244.094364 Z M478.158506,247.194364 L477.858506,247.194364 C477.758506,246.294364 477.758506,245.394364 477.658506,244.394364 C478.158506,244.594364 478.358506,244.894364 478.258506,245.594364 C478.158506,246.094364 478.158506,246.594364 478.158506,247.194364 L478.158506,247.194364 Z M481.799796,239.960096 L480.626018,240.20959 C479.646666,237.525994 479.058573,234.759234 478.013877,231.768221 C480.10086,231.967233 481.079409,232.723157 481.145556,234.958246 C481.081015,236.5785 481.407734,238.115589 481.799796,239.960096 L481.799796,239.960096 Z M481.758506,248.894364 C481.672792,248.722936 481.605445,248.588242 481.548593,248.474539 L481.401655,248.180662 L481.401655,248.180662 L481.358506,248.094364 C481.458506,248.094364 481.458506,247.994364 481.458506,247.994364 C481.475173,248.011031 481.491839,248.027698 481.508043,248.043901 L481.650636,248.186494 L481.650636,248.186494 L481.658506,248.194364 C481.758506,248.394364 481.658506,248.494364 481.758506,248.894364 Z M484.658506,248.994364 C484.358506,248.294364 484.358506,248.294364 484.858506,247.994364 C485.158506,248.394364 485.158506,248.794364 484.658506,248.994364 Z M482.758506,252.494364 C482.558506,252.194364 482.458506,251.894364 482.358506,251.694364 C482.458506,251.594364 482.558506,251.594364 482.658506,251.594364 C482.758506,251.794364 482.858506,252.094364 482.958506,252.394364 C482.858506,252.394364 482.858506,252.494364 482.758506,252.494364 Z M487.758506,252.794364 C487.758506,252.594364 487.658506,252.394364 487.558506,252.194364 C487.658506,252.194364 487.658506,252.194364 487.758506,252.094364 C487.758506,252.294364 487.858506,252.494364 487.958506,252.694364 C487.858506,252.694364 487.858506,252.694364 487.758506,252.794364 Z M484.158506,256.794364 C483.758506,255.594364 483.358506,254.394364 482.958506,253.294364 C483.558506,253.894364 484.358506,255.994364 484.158506,256.794364 Z M486.258506,257.794364 C485.358506,256.394364 484.958506,254.994364 484.658506,253.394364 C485.858506,254.594364 486.358506,255.994364 486.258506,257.794364 Z M483.658506,267.694364 C482.158506,264.894364 480.158506,260.094364 480.358506,258.694364 C482.058506,261.594364 482.858506,264.594364 483.658506,267.694364 Z M487.158506,258.994364 C487.758506,259.294364 487.558506,259.594364 487.458506,259.894364 L487.458506,259.894364 L487.158506,258.994364 Z M488.558506,263.594364 C488.258506,263.194364 488.058506,263.094364 487.958506,262.794364 C487.658506,261.994364 487.458506,261.194364 487.158506,260.394364 C487.158506,260.194364 487.158506,259.994364 487.458506,259.994364 L487.458506,259.994364 L487.549131,260.069364 C487.617881,260.119364 487.699131,260.169364 487.767881,260.219364 L487.858506,260.294364 C488.158506,261.194364 488.358506,262.094364 488.658506,263.094364 C488.658506,263.194364 488.558506,263.294364 488.558506,263.594364 Z M491.958506,263.994364 C491.858506,263.994364 491.758506,263.894364 491.658506,263.894364 C491.558506,263.594364 491.558506,263.194364 491.558506,262.794364 C491.658506,262.794364 491.758506,262.694364 491.858506,262.694364 C491.858506,263.094364 491.858506,263.494364 491.958506,263.994364 Z M486.858506,264.594364 C486.558506,263.994364 485.758506,263.594364 486.358506,262.894364 C486.458506,262.894364 486.558506,262.894364 486.658506,262.794364 C486.658506,263.394364 486.758506,263.994364 486.858506,264.594364 Z M486.958506,268.094364 C486.458506,266.694364 485.958506,265.394364 485.458506,264.094364 C485.558506,263.994364 485.658506,263.994364 485.758506,263.994364 L485.758506,263.994364 L486.358506,265.194364 C486.558506,265.694364 486.758506,266.094364 486.958506,266.594364 C487.058506,266.994364 487.458506,267.494364 486.958506,268.094364 Z M491.358506,269.794364 C490.458506,268.694364 490.558506,267.394364 490.258506,266.194364 C491.358506,267.194364 491.458506,268.394364 491.358506,269.794364 Z M485.458506,273.494364 C484.658506,271.994364 484.158506,270.494364 483.958506,268.894364 C484.358506,269.494364 485.458506,272.694364 485.458506,273.494364 Z M493.858506,278.194364 C493.758506,277.894364 493.658506,277.594364 493.558506,277.194364 C493.358506,276.594364 493.158506,275.994364 492.758506,275.394364 C492.058506,274.394364 491.958506,273.094364 491.858506,271.994364 C491.858506,271.894364 491.958506,271.694364 492.158506,271.394364 C493.058506,273.794364 493.558506,275.894364 493.858506,278.194364 Z M492.158506,278.894364 C491.458506,278.194364 491.558506,277.194364 490.958506,276.394364 C490.458506,275.694364 490.158506,274.794364 490.158506,273.794364 C490.958506,275.494364 491.958506,276.994364 492.158506,278.894364 Z M490.358506,279.194364 C490.058506,278.094364 489.058506,277.094364 489.358506,275.694364 C489.958506,276.794364 490.358506,277.994364 490.358506,279.194364 Z M489.058506,280.894364 C488.758506,281.094364 488.558506,281.294364 488.158506,281.094364 C487.551839,280.834364 487.546062,280.349031 487.555306,279.833653 L487.558506,279.594364 C488.058506,279.994364 488.558506,280.394364 489.058506,280.894364 Z M498.758506,281.994364 C498.258506,281.294364 497.958506,280.494364 497.858506,279.694364 C498.458506,280.294364 498.658506,281.094364 498.758506,281.994364 Z M490.258506,286.294364 C489.858506,285.794364 489.158506,285.494364 489.458506,284.594364 C489.058506,284.094364 488.958506,283.394364 488.858506,282.694364 C488.858506,282.494364 488.858506,282.294364 488.958506,281.894364 C489.158506,282.094364 489.258506,282.194364 489.258506,282.294364 C489.658506,283.294364 490.058506,284.294364 490.358506,285.194364 C490.458506,285.494364 490.458506,285.894364 490.458506,286.194364 C490.358506,286.194364 490.258506,286.294364 490.258506,286.294364 Z M496.758506,286.194364 C497.058506,285.694364 497.358506,285.194364 497.458506,284.694364 C497.458506,284.294364 497.258506,283.694364 497.058506,283.294364 C497.158506,283.194364 497.258506,283.194364 497.258506,283.194364 C497.658506,283.994364 498.058506,284.894364 498.558506,285.794364 C497.958506,285.894364 497.358506,286.094364 496.758506,286.194364 Z M493.558506,285.294364 C493.058506,285.494364 492.658506,285.694364 492.358506,285.194364 C492.058506,284.494364 492.658506,284.294364 492.958506,283.594364 C493.258506,284.294364 493.358506,284.794364 493.558506,285.294364 Z M493.658506,286.594364 C493.458506,286.394364 493.258506,286.194364 493.058506,286.094364 L493.058506,286.094364 L493.358506,285.794364 C493.558506,285.994364 493.658506,286.194364 493.758506,286.394364 C493.758506,286.394364 493.658506,286.494364 493.658506,286.594364 Z M495.458506,286.994364 L495.251271,286.993587 C494.723337,286.986979 494.68846,286.924199 494.881387,286.327795 L494.958506,286.094364 C495.058506,286.394364 495.258506,286.694364 495.458506,286.994364 L495.458506,286.994364 Z M492.658506,287.394364 C492.658506,287.394364 492.358506,287.494364 492.358506,287.394364 C492.358506,287.194364 492.258506,286.994364 492.258506,286.794364 L492.258506,286.794364 L492.558506,286.794364 C492.558506,286.994364 492.658506,287.194364 492.658506,287.394364 Z M483.858506,226.094364 C483.958506,226.594364 484.158506,227.094364 484.358506,227.594364 C484.258506,227.694364 484.158506,227.694364 484.058506,227.694364 C484.058506,227.194364 483.958506,226.694364 483.858506,226.094364 Z" id="m" fill="#1D1D1D" fill-rule="nonzero" transform="translate(487.396872, 254.200477) rotate(179.000000) translate(-487.396872, -254.200477) "></path>
            <path d="M304.09548,202.095947 C300.756531,201.087635 299.609648,200.980293 301.106161,201.68457 C301.771803,201.99783 302.723852,201.780203 303.278951,201.297424 C303.327357,201.255326 303.697513,196.982394 301.28771,199.278687 C298.401529,202.028918 302.267679,203.610083 304.201559,202.796143 C308.629738,200.93239 297.991448,201.433075 303.18395,200.50412" id="Path-2" stroke="#1D1D1D"></path>
            <path d="M359.712301,208.54155 C360.950928,209.044942 364.537306,210.798351 363.428182,210.051727 L363.442037,206.935242 C360.985243,205.281413 357.317789,208.706496 361.426321,207.21933 C361.799047,207.084414 360.629898,207.165757 360.237142,207.21933 L360.31542,209.143677 C359.697767,209.227927 360.835391,207.808678 361.437612,207.647675 L363.519399,209.447815 C366.591547,208.626478 354.518,206.552813 362.405233,209.087952" id="Path-3" stroke="#1D1D1D"></path>
            <path d="M5.41280145,231.856842 C5.41280145,234.793437 2.49421058,240.991304 5.41280145,240.666626 C32.2024101,237.686422 -19.4614086,218.982661 8.67714471,241.186127 C10.5727728,242.681922 8.95121772,231.945941 10.0819756,234.079529 C11.6050275,236.953322 8.66653674,246.765147 10.0819756,243.836853 C12.3268286,239.192647 9.85406609,232.869935 12.7349145,228.591064 C14.7850154,225.546088 12.0341154,236.042741 12.9334008,239.601685 C13.6247655,242.337777 12.4065481,233.795829 13.380819,231.147247 C13.9500178,229.599865 13.442107,234.580181 14.25234,236.016113 L14.7707421,231.533051 C16.526362,234.64444 18.2668795,245.383102 17.5615746,241.88089 C16.7743822,237.972062 17.4621031,233.007167 14.5246179,230.310913 C12.5645302,228.511791 13.4605491,240.895448 13.5929162,238.238144 C13.8023521,234.033664 14.7384212,221.453094 14.7561547,225.66275 C14.7889667,233.451782 16.4208876,241.728194 13.6382653,249.003296 C11.251303,255.243954 18.0460669,233.85137 13.4953515,228.959091 C-15.1539414,198.159469 43.772121,323.295785 11.307882,224.026749 C9.1554919,217.445178 12.9033243,238.211653 10.7502953,244.793015 C9.27743963,249.295228 11.6019236,226.631452 9.1331994,230.674301 C6.086582,235.663524 6.84445673,242.65099 8.666372,248.205704 C10.1902563,252.851772 8.032709,238.040058 10.0949914,233.606644 C11.7716764,230.002172 11.1011232,249.324147 9.91042108,245.531296 C8.34238619,240.536493 9.77978471,224.69352 8.9179284,229.857239 L7.47153253,233.032974 C6.87977911,236.578401 4.96745845,240.57524 6.59403008,243.780624 C8.15966139,246.865917 6.9270004,230.083864 7.68771905,233.459 C9.38128168,240.972952 6.85353864,249.250355 9.46043939,256.49823 C11.40407,261.902038 8.65366722,244.904415 9.77889031,239.27301 C10.6077232,235.12495 8.85174229,255.897882 10.3693444,251.949432 C12.8480925,245.500303 11.4581974,238.141315 12.8174951,231.367264 C13.2203223,229.359777 13.2270709,235.446022 13.2701928,237.493073 C13.378054,242.613376 15.6420487,257.396493 13.2701928,252.857391 C10.6955902,247.930286 15.0523371,241.178283 12.5911462,236.193558 C10.5192132,231.997209 14.2713943,246.145869 11.9678246,250.219666 C9.88472296,253.90357 11.9179615,233.292758 11.8387811,237.524094 C11.7165977,244.053468 11.8387811,263.646164 11.8387811,257.115646 C11.8387811,194.300958 12.4879625,256.825044 10.2294518,253.24472 C-8.29386511,223.88047 28.6113565,229.052421 9.23686761,251.990845 C5.64059299,256.248654 9.45958556,229.776392 8.59953851,235.282974 C7.2680729,243.807885 8.76933277,252.581322 7.80547112,261.155579 C7.10509551,267.385934 8.31091082,248.595977 7.80547112,242.346786 C7.66872244,240.656044 4.27662277,269.176803 5.67615289,260.90387 C11.6385435,225.658855 2.4876489,252.867904 11.5150659,265.662415 C14.6069067,270.044464 11.8451813,244.220558 11.5150659,249.573395 C10.897258,259.591179 13.7516501,270.125539 10.6511132,279.671448 C7.92060488,288.078115 11.1531747,261.958721 10.3513696,253.156174 C9.88698307,248.057947 14.6545593,269.494587 9.63329095,268.497375 C4.57088841,267.491995 14.5550814,254.567493 9.63329095,253.013565 C4.82951863,251.496899 9.73054127,263.245692 8.25899285,268.063477 C-2.67169755,303.850075 35.305238,113.439116 7.70506829,283.722443 C-7.30918673,376.355108 12.121518,249.303027 6.38765496,257.893646 C5.10059786,259.821948 4.45935135,266.93416 5.25165338,264.755371 L5.51073235,273.756683 C7.7758147,267.527826 5.42708377,248.674634 9.09081048,254.197891 C13.7444061,261.213426 9.10112604,271.036516 9.28929681,279.453064 C9.41131618,284.910776 11.8073434,258.232185 9.28929681,263.075836 C6.22300488,268.974078 3.11053284,277.925143 7.47841424,282.936432 C11.4815691,287.529268 4.93779593,264.075315 10.9607751,264.99353 C17.1227177,265.932931 10.4425506,277.667019 12.1797997,283.653168 C13.5231133,288.281908 12.6476965,273.990957 12.1797997,269.194 C11.3307227,260.489118 9.78021981,251.862378 8.23915643,243.253021 C7.93401506,241.548308 8.02765885,246.767964 8.46549005,248.443512 C9.54735357,252.583725 10.7932182,264.344632 12.7570397,260.542633 C16.2630419,253.75494 11.1911479,230.568942 14.0358025,237.659271 C17.8438782,247.150937 13.034737,258.457983 15.8636987,268.286011 C18.1021109,276.062425 15.8636987,235.917358 15.8636987,244.009521 C15.8636987,253.03124 13.4359057,262.385762 15.8636987,271.074677 C18.142066,279.228806 24.3898841,248.272792 16.330343,245.679611 C-33.2145933,229.738386 75.6962504,342.665779 14.8258569,240.0345 C9.9051177,231.737827 14.9598131,259.334092 14.5538842,268.97171 C14.3278463,274.338333 14.9065333,258.19518 14.2856652,252.859802 C13.7620354,248.360034 14.2549684,242.927998 11.1404168,239.638367 C9.21567958,237.605433 11.9969765,260.724978 13.1361901,258.634155 C15.9668194,253.43904 14.759064,246.913534 15.570501,241.053223" id="Path-4" stroke="#1D1D1D"></path>
            <path d="M301.177999,175.788208 C294.860627,181.971313 288.168521,187.793442 282.225881,194.337524 C279.608951,197.219309 288.459864,189.621261 291.161367,186.818604 C292.929811,184.983942 294.435787,182.845258 295.524252,180.541214 C295.730584,180.104453 286.940279,185.696519 289.547048,187.917694 C294.178075,191.863697 292.315302,174.91155 290.014333,189.319153 C289.879462,190.163654 289.683879,191.30288 290.327932,191.865524 C295.331931,196.237014 302.848585,180.300562 301.503072,177.24585 C299.243386,172.11569 293.683907,179.177068 293.077902,180.000641 C292.733592,180.468564 291.911446,181.635888 292.492361,181.642181 C294.421726,181.663082 298.951592,178.694545 299.581197,176.89064 C299.798621,176.267693 297.558338,175.464212 297.771566,176.088608 C298.66047,178.691588 302.691858,180.001969 305.00585,178.958099 C305.955085,178.529888 306.730463,176.664577 305.946584,175.97905 C298.956357,169.865869 297.435343,181.381966 299.265279,180.278214 C299.596213,180.078606 300.042608,179.102389 299.66628,179.190353 L294.112997,178.521515 C286.555028,180.288146 303.768518,179.910864 300.349081,178.309235 C299.035753,177.694085 294.593317,178.028587 295.998983,178.385437 L287.808279,187.069656 C320.954768,195.484398 299.713501,165.717458 286.336752,181.636124 C285.40119,182.749465 283.114401,186.032491 284.500875,185.59375 C318.158953,174.942859 297.532879,172.499037 288.553793,184.489792 C287.716983,185.607275 291.360606,185.060222 292.730978,184.793579 C296.079545,184.142026 299.708808,183.721922 302.509573,181.774323 C303.731952,180.924302 299.570181,181.297923 298.100485,181.059723" id="Path-5" stroke="#1D1D1D"></path>
            <path d="M500.62592,286.932077 C500.62592,296.206485 501.052067,285.34983 492.767003,274.619394 C491.80072,273.367909 492.517932,277.785126 492.644627,279.361154 C493.067694,284.623888 493.004871,290.012879 494.413518,295.101206 C494.99465,297.200376 493.75431,286.991725 495.206487,288.615122 C498.106598,291.857173 495.750053,298.882182 499.602544,300.902048 C502.849404,302.604381 500.451988,292.67923 497.913365,290.034342 C494.47939,286.456622 498.957494,305.323603 499.50916,304.433725 C501.114729,301.843825 503.063718,294.706706 500.076787,295.309763 L498.471074,290.270059 C482.384198,293.517977 495.938938,303.46664 501.988042,304.790293 C503.217361,305.05929 497.013094,276.764626 495.990422,283.210214 C495.114499,288.730888 504.150174,303.566114 500.45139,299.375162 C495.422094,293.676656 496.447689,284.248128 491.681432,278.32786 C489.458978,275.567303 491.394704,285.472268 492.060857,288.953104 C493.693158,297.482345 494.748679,306.374824 498.543797,314.185678 C515.654094,349.400928 482.119695,252.986381 497.374211,292.422067 C500.983926,301.753833 502.972152,311.636135 505.989812,321.175821 C506.270268,322.062422 506.984269,324.55085 507.256108,323.661569 C508.799479,318.612673 502.455305,305.352419 501.697606,304.16102 C500.797422,302.74558 501.064293,307.551782 501.439519,309.186716 C503.521911,318.260099 506.341326,327.15051 509.019994,336.06608 C509.41438,337.378738 508.874906,333.261704 508.299107,332.017893 C505.965965,326.977951 498.027285,312.329184 500.363866,317.367533 C505.872793,329.246384 513.937622,340.05215 517.823949,352.556223 C519.402016,357.633581 511.706607,343.656381 507.517064,340.382608 C506.523846,339.606492 506.652393,342.937482 507.046697,344.134714 C509.13249,350.467853 511.953908,356.545681 514.822667,362.564768 C515.814681,364.646161 516.938952,366.758113 518.594243,368.363199 C519.001778,368.758373 519.616559,367.055028 519.138188,366.749399 L515.067449,358.937143 C513.578069,357.985584 514.713395,362.540337 515.206609,364.237528 C517.196979,371.086558 520.040837,377.658162 522.457951,384.368479" id="Path-6" stroke="#1D1D1D" transform="translate(506.550521, 329.383746) rotate(2.000000) translate(-506.550521, -329.383746) "></path>
            <path d="M109.036703,236.886292 C109.451945,236.344844 110.616863,235.856714 110.28243,235.261948 L104.964956,238.979492 C104.046173,237.345498 106.773191,235.684342 107.466085,233.942505 L104.035207,240.403076 C105.528619,236.648853 111.141251,233.030461 109.248953,229.460632 C107.427684,226.024803 101.600148,236.40733 103.664144,239.703064 C105.508069,242.647395 107.598517,232.400678 111.072469,232.372375 C113.624718,232.351582 106.185462,239.44495 108.728567,239.661804 L113.467306,233.506836 C122.487468,234.275998 102.775006,250.818344 118.391439,234.543213 C119.210247,233.689868 116.852275,238.451751 116.297476,237.407318 C115.287111,235.505264 117.149099,232.996549 116.482046,230.9487 C116.245798,230.22342 114.841193,230.545492 114.193685,230.9487 C110.993747,232.941325 108.68799,236.290413 105.288351,237.919098 C103.812032,238.626366 106.693484,233.006299 108.079031,233.878082 C109.488195,234.764725 105.127028,239.751277 106.25704,238.528595 C114.93857,229.135107 106.468167,229.769361 106.477041,240.364182 C106.478513,242.121838 109.086109,237.905456 109.883077,236.338867 C112.387172,231.416604 113.656219,225.913329 116.296285,221.062637 C118.069742,217.804199 120.334664,214.752579 123.023092,212.196228 C124.528675,210.764611 126.535202,209.729823 128.583028,209.379517 C132.716373,208.672455 137.384509,207.268685 141.159933,209.093689 C144.221945,210.573837 145.303681,214.665133 146.265798,217.9272 C148.40622,225.184322 148.36383,232.954525 150.350729,240.255173 C152.299664,247.41633 144.497688,185.178466 149.311788,248.714539 C149.469047,250.790023 149.925615,240.69152 150.695272,242.625427 L150.211019,246.322113 C150.608106,247.319867 150.034896,242.563663 150.915365,243.178452 L151.48702,246.300293 C152.116818,246.74005 152.030138,244.863215 152.296224,244.142639 L152.296224,247.704956 C152.970324,245.87946 155.059129,241.834837 153.115225,241.924744 L152.533651,252.425415 C148.877802,252.5945 149.522449,238.555876 148.725362,242.127777 C147.229543,248.830836 146.639948,256.830485 150.246328,262.675354 C170.322455,295.212781 150.230246,241.023638 149.384908,243.112762 C140.655423,264.686363 161.049897,221.614468 148.948904,243.718063 C148.481153,244.572454 148.744921,239.97711 148.335622,240.860992 L146.805135,240.589035 C142.340391,250.230669 147.929196,249.359698 143.732809,241.437683 C143.324038,240.665998 143.4776,243.165466 143.349996,244.029358" id="Path-7" stroke="#1D1D1D"></path>
            <path d="M44.0397241,183.108597 C46.5052901,181.449656 49.9823631,180.723456 51.4364221,178.131775 C52.1764741,176.812723 48.359517,178.408459 46.9006555,178.009338 C46.2780425,177.839002 48.9831712,176.796622 48.7364709,177.393112 L52.6378686,176.867188 C51.6197893,179.328774 46.7072116,178.267384 47.0320031,181.545303 C47.1214255,182.447789 50.4692069,182.335313 49.7412927,181.794373 L46.7551171,182.848694 C41.3295858,178.816775 52.3189329,181.459822 46.9242761,180.357254" id="Path-10" stroke="#1D1D1D"></path>
            <path d="M100.543661,226.290192 C97.7056886,224.275014 90.6048476,217.069019 92.0297448,220.244659 C94.2335985,225.156346 98.8921419,228.647819 103.105245,231.999146 C103.903606,232.634204 102.978508,229.962044 102.963583,228.942017 L105.298361,229.655212 C105.280347,228.424182 101.974357,227.592013 102.932516,226.818909 C103.903857,226.035168 106.694011,230.100595 105.732259,229.305115 L105.806448,228.806946 C102.739162,226.269945 93.2854604,219.226734 95.7693078,222.337219 C112.130336,242.82589 107.466782,231.906509 105.874227,227.761383" id="Path-11" stroke="#1D1D1D"></path>
            <path d="M143.256551,185.750534 C146.831545,181.567944 154.574254,170.630565 161.269369,168.588852 C162.93523,168.080838 157.446239,171.318912 158.258993,172.859238 C170.033426,195.174059 160.900494,150.026841 158.157247,174.599579 C157.958059,176.383818 165.225198,174.53056 163.520498,175.09375 L165.489462,177.268219 C162.276173,178.329809 158.225765,176.007857 155.350698,177.792847 C152.823907,179.361609 153.500209,188.180036 151.60256,185.889923 L148.788229,186.549042 C148.608282,186.331879 151.460955,180.566063 153.716146,175.962769 C153.89081,175.606245 152.74324,175.781243 152.535482,176.119553 L147.563711,178.812897 C147.047101,179.654134 149.448425,179.493006 150.434469,179.540802 C154.478386,179.736822 158.553696,179.961301 162.580465,179.540802 C164.917721,179.296732 171.363533,178.774095 169.348043,177.565735 C164.270138,174.521345 147.841919,181.772372 145.59847,182.987579 C142.197521,184.829769 160.394806,180.261656 156.628011,179.383377" id="Path-12" stroke="#1D1D1D"></path>
            <path d="M206.900778,174.603226 C294.448563,174.603226 223.962692,177.197854 208.725301,175.105606 C204.120541,174.473326 218.018335,175.956811 222.657644,175.673248 C225.16973,175.519705 227.459252,173.697624 229.973653,173.80687 C232.955686,173.936432 235.694764,175.511602 238.555319,176.363968" id="Path-13" stroke="#1D1D1D"></path>
            <path d="M262.510763,194.389526 C267.244283,193.418335 272.553847,193.938636 276.711324,191.475952 C338.697088,154.758652 259.860272,198.327686 267.440633,190.068848 C267.986713,189.473892 269.192635,188.780529 269.756826,189.358337 L276.136068,189.159851 C277.262847,190.313826 271.59273,190.065009 271.976461,191.631546 L276.458456,191.631546 C277.197359,194.648029 270.337546,191.685959 269.750295,191.391083" id="Path-14" stroke="#1D1D1D"></path>
            <path d="M327.648336,207.672089 C330.018799,207.672089 333.128848,209.39236 334.759725,207.672089 C336.227653,206.123698 326.731654,205.551171 328.409414,206.869293 C332.042453,209.723569 341.94263,208.069375 341.030355,212.598572 C340.133421,217.051606 332.518231,209.397063 328.154165,208.136536 C326.18785,207.568581 332.288166,211.877393 333.815084,210.514496 C345.034805,200.499992 302.505651,213.877478 336.697103,209.48645 C338.877133,209.20648 332.613322,207.85968 330.571432,207.046295" id="Path-15" stroke="#1D1D1D"></path>
            <path d="M389.084127,220.136963 C372.655856,228.651804 401.041155,216.013855 395.046377,216.013855" id="Path-16" stroke="#1D1D1D"></path>
            <path d="M298.367025,273.946655 C318.532708,273.946655 314.722368,272.624855 334.955404,278.270996 C336.462211,278.691479 331.768358,278.373632 330.276815,277.901855 C326.340617,276.656832 322.440133,275.174943 318.830831,273.170776 C313.122001,270.000786 335.858055,276.960379 332.952657,278.748169 C327.865031,281.878758 309.258027,280.280898 315.031698,278.748169 L303.419882,276.044678 C310.441879,274.180557 332.320629,274.527759 325.215536,276.044678 L328.351522,277.501648 C320.323859,279.215533 306.235143,276.2592 328.455831,278.283081 C330.396893,278.459875 324.557638,278.283081 322.608541,278.283081 C320.881592,278.283081 329.450481,278.755441 327.789388,278.283081 C316.581578,275.095953 316.992391,280.498758 316.992391,275.440186" id="Path-17" stroke="#E31010"></path>
            <polyline id="Path-18" stroke="#1D1D1D" points="322.729452 251.486908 323.911764 250.493317 323.911764 250.364258 323.911764 250.07843 323.782736 250.07843 323.653677 249.949371 323.524618 249.949371 323.395559 249.949371 323.273214 249.949371 323.1509 249.949371 323.1509 250.069366 323.1509 250.355194 323.1509 250.483673 323.1509 250.612732 323.1509 250.74176 323.1509 250.870667 323.273367 250.870667 323.402425 250.870667 323.531484 250.870667 323.660543 250.870667"></polyline>
            <path d="M322.191137,250.726669 C322.803137,249.941335 324.694994,247.632251 324.027136,248.370667 L321.66245,248.058144 C320.859829,248.945559 319.493283,255.773741 324.749082,252.438118 C329.742438,249.269057 319.557873,250.482524 321.771192,251.479828 C324.692351,252.796079 323.730489,246.008901 322.672338,251.026787" id="Path-19" stroke="#1D1D1D"></path>
            <path d="M297.719503,154.800964 C317.421799,128.986006 305.429632,138.585531 308.608053,162.321411 C309.115994,166.114626 309.819062,154.743739 310.886495,151.068542 C311.203358,149.977579 309.951875,155.122509 310.886495,154.476685 L313.862203,154.135315 C317.413678,151.68124 320.420094,142.793493 323.651205,145.65625 C327.930555,149.447746 320.022905,158.389784 323.651205,162.80835 C326.544633,166.331984 325.474003,153.85942 326.806844,149.499207 C327.106644,148.518451 326.304581,153.484898 326.779134,152.575745 C328.663828,148.965036 327.93202,138.678176 331.155782,141.16748 C348.404303,154.486332 307.283094,171.413802 339.539877,138.329712 C341.923039,135.885427 338.191914,145.193238 338.831564,148.54657 C338.995096,149.403882 341.184026,147.424604 341.434225,148.260742 L345.150167,144.830688 C346.747193,150.167786 343.605519,156.270261 345.408224,161.541443 C346.085861,163.52288 348.208379,158.361999 349.135641,156.484375 C350.725335,153.265384 350.064336,144.176244 352.890829,146.389832 C356.703481,149.375736 353.480666,156.11281 354.658956,160.809998 C354.804786,161.391341 356.120021,161.009694 356.429464,160.496399 C358.920877,156.363722 358.601315,144.924364 362.711019,147.453491 C367.586014,150.45358 362.743953,158.909814 363.13149,164.62085 C363.209159,165.765435 363.341438,167.062817 364.100057,167.923401 C364.640675,168.536682 366.072432,169.137769 366.497762,168.439575 C370.014182,162.667254 380.19489,147.202574 374.999899,150.030945 C355.777548,160.496399 352.248331,162.314475 364.100057,146.650452 C393.375794,107.957707 354.658956,162.321411 376.574728,157.426758 C383.267158,155.932075 379.501316,143.140096 385.173361,142.677612 C389.84055,142.297061 382.396707,152.955014 385.173361,156.725647 C387.069387,159.300408 391.077225,150.436703 389.060079,147.955688 C387.259667,145.741248 384.12384,156.21699 382.733419,153.724609 C380.33442,149.424313 387.48494,135.464004 384.071066,139.012695 C361.646541,162.322786 387.4365,166.445888 378.544027,144.77356 C377.753097,142.845941 374.16742,144.516324 372.337057,145.511841 C368.166755,147.780027 363.947856,158.059312 361.099935,154.26123 C356.106903,147.602357 361.404726,137.54261 360.187765,129.309143 C360.049363,128.372771 357.75585,128.133237 357.365499,128.995544 L355.777548,130.980469 C352.61952,137.956737 349.968091,145.153319 346.879171,152.160461 C346.033062,154.079841 349.361493,148.325899 349.04537,146.252258 C348.891302,145.241636 346.669093,145.498508 345.978475,146.252258 C343.548127,148.904776 342.365201,158.64701 340.5165,155.560791 C324.412336,128.676515 366.992474,140.843412 324.511068,156.783325 C321.317784,157.981512 326.38449,147.533268 323.090048,146.650452 L318.655782,143.184753 C315.473562,142.332009 311.944028,141.900383 308.779195,142.815552 C305.707752,143.703716 304.071951,147.780283 300.919454,148.313538 C292.874301,149.674399 311.199762,134.997914 295.050314,143.665405 C292.076568,145.26143 290.909149,149.248316 287.964803,150.897949 C286.971102,151.454692 288.965994,146.627323 288.222921,147.490601 L285.90328,147.803528 C283.533793,150.556316 281.966246,153.908705 280.045187,156.991211 C278.717588,159.121458 284.804561,148.244819 284.122762,150.660522 C282.375538,156.851175 279.018688,162.476632 276.7936,168.512024 C276.559725,169.146392 276.235238,170.921596 276.7936,170.540344 C277.018382,170.386862 287.907857,160.345705 276.382833,176.319031 C275.555766,177.465321 274.979606,177.398481 274.679464,176.767822 C271.561546,170.216438 283.682231,155.302772 287.640035,151.150024 C299.477169,138.72985 313.47583,129.183404 330.905416,127.037292 C351.788924,124.465899 338.143601,125.605409 353.029928,132.935974 C353.867543,133.348446 355.476728,131.260682 355.721761,132.161621 C356.441126,134.806586 354.969905,150.497246 360.751424,155.059814 C368.037031,160.809354 371.082358,135.757484 375.272726,140.792236 C387.142978,155.054417 383.812285,154.886744 391.13442,174.014404 C391.405654,174.72295 392.622226,176.034703 392.969869,175.360352 C393.534478,174.265135 384.006639,117.071743 392.67452,194.611633 C392.998203,197.507185 393.681977,188.80486 393.422018,185.902893 C393.163087,183.012407 383.698181,177.109598 395.684469,190.165222 C397.365554,191.996282 400.163698,196.129773 401.873373,194.325378 C403.613327,192.489028 399.771616,189.521753 397.825033,187.906067 C396.087984,186.464297 399.776045,197.815974 401.511251,193.845276 C407.448611,180.258724 390.479214,188.437597 396.178365,189.789062 C399.43178,190.560559 401.575786,188.142493 397.700521,177.494873 C395.739479,172.106744 392.00785,167.538586 389.278219,162.496094 C389.099729,162.166367 388.638894,161.533176 388.992391,161.408203 C393.476492,159.822928 406.655792,169.569852 385.681539,149.47876 C382.369709,146.30638 377.07591,146.051297 373.350485,143.376709 C365.70417,137.887203 359.351767,130.745518 351.786642,125.144653 C350.035543,123.848222 347.813634,123.186443 345.657369,122.874023 C325.172186,119.905945 326.825513,133.468766 305.88381,150.513184 C299.410327,155.781941 299.460842,145.732034 291.882589,149.480774 C287.241424,151.776623 284.626879,158.148742 279.497579,158.856995 C276.670521,159.247354 284.182099,148.584298 282.375448,150.793518 C276.712874,157.717862 276.929993,163.829394 275.418478,171.932983 C275.251884,172.826132 276.53224,168.76263 275.751791,169.227783 C274.534014,169.953586 274.316843,171.676928 273.703573,172.955078 C271.561109,177.420308 268.737388,181.657955 267.48818,186.450439 C266.618023,189.788725 265.048702,199.239245 267.48818,196.799927 C270.920524,193.367808 268.369858,186.655572 271.215536,182.723328 C282.902404,166.574057 235.603832,295.68264 278.194845,165.978394 C278.369735,165.445793 278.733532,167.630465 279.203146,167.324341 L283.479513,166.9552 C288.934143,163.399522 293.13217,158.107201 298.648763,154.648437 C304.664126,150.876958 312.227731,149.758305 317.841268,145.411255 C323.901941,140.717949 326.923437,132.808963 332.956869,128.080688 C342.646322,120.487266 349.780137,142.918677 359.336569,137.22583 C384.856205,122.023568 376.370557,106.782664 400.696066,153.770752 C401.538717,155.39845 397.648183,151.146442 395.817403,151.234253 C393.722438,151.334736 395.156769,162.379247 395.901144,166.576965 C396.505824,169.986907 399.309426,172.877428 399.461691,176.337219 C399.508645,177.40412 396.546771,176.114262 396.367208,177.166992 C395.396905,182.855627 396.367208,188.708577 396.367208,194.47937 C396.367208,197.999105 396.176548,187.434733 396.367208,183.920166 C396.472059,181.987379 394.946543,188.757805 396.625326,189.721313 C398.063178,190.546544 398.123476,186.69672 398.341512,185.053284 C398.703961,182.321342 398.823801,179.498995 398.341512,176.785645 C398.152559,175.722596 396.411907,173.105838 396.409811,174.185547 C396.355277,202.276474 400.496735,175.356279 398.318746,201.031738 C398.163189,202.865545 398.404721,207.254026 396.806356,206.341736 C392.292774,203.765543 390.101481,198.399353 386.749044,194.428162" id="Path-20" stroke="#1D1D1D"></path>
        </g>
    </g>
</svg>