<?xml version="1.0" encoding="UTF-8"?><svg id="Layer_1" xmlns="http://www.w3.org/2000/svg" width="357.2" height="80.73" viewBox="0 0 357.2 80.73"><defs><style>.cls-1{fill:#d1b192;}</style></defs><path class="cls-1" d="m23.16,23.62c3.63.21,6.64,1.69,9.01,4.42,2.42,2.74,3.63,6.85,3.63,12.32,0,3.58-.76,6.42-2.29,8.53-1.53,2.11-3.29,3.58-5.29,4.42-2,.79-3.77,1.19-5.29,1.19-1.42,0-3.82.16-7.19.47-1.95.21-3.53.34-4.74.39-.11,4.85-.16,8.14-.16,9.88,0,6.85.08,10.56.24,11.14.11.53,0,1-.32,1.42-.26.37-.63.63-1.11.79-.42.11-.82.08-1.19-.08-.16-.05-.61-.08-1.34-.08-1.58,0-3.27.1-5.06.32-.84.1-1.4-.05-1.66-.47-.26-.47-.4-1.18-.4-2.13,0-1.16.03-2.21.08-3.16l.08-6.64.16-9.32c.32-11.17.47-19.88.47-26.15,0-1.9-.03-3.03-.08-3.4-.11-1.16-.16-1.84-.16-2.05,0-1.37.29-2.05.87-2.05.26,0,.79.03,1.58.08.84.05,2,.08,3.48.08.42,0,1.5-.03,3.24-.08,1.74-.05,3.56-.08,5.45-.08,2.79,0,5.45.08,7.98.24h.01Zm-2.45,25.2c1.95,0,3.77-.58,5.45-1.74,1.69-1.16,2.53-3.24,2.53-6.24,0-3.21-.66-5.64-1.98-7.27-1.32-1.69-3.24-2.77-5.77-3.24-3.95-.79-7.06-1.11-9.32-.95,0,1.47-.03,2.58-.08,3.32-.11,2.95-.24,5.06-.39,6.32-.21,1.84-.26,3.92-.16,6.24l.16,3.08,3.71.24c1.42.16,3.37.24,5.85.24Zm27.14-19.91c-.26,7.37-.4,11.38-.4,12.01l-.08,11.3c0,1,.03,1.87.08,2.61l.08,4.74c0,1.11-.03,1.79-.08,2.05-.05.32-.08.61-.08.87.05.26.08.45.08.55,0,.21.03.34.08.39l1.9.16c1.69.1,3.08.13,4.19.08l14.61-.16s2.77.08,8.3.24l3.71.08c.58.05.87.21.87.47,0,.1-.03.24-.08.4s-.08.32-.08.47v3.63c0,.95.16,2.95.47,6l.32,3.32.08.4c0,.26-.13.42-.4.47-.26.1-.74.16-1.42.16l-5.77-.08-9.8-.16c-1.32,0-3.16.08-5.53.24-1.05.05-2.24.1-3.55.16-1.26.05-2.53.08-3.79.08l-1.34-.08c-.32-.05-.92-.08-1.82-.08l-3.55.08c-.63.05-1.45.08-2.45.08-.68,0-1.11-.11-1.26-.32-.11-.16-.16-.42-.16-.79.05-.37.08-.68.08-.95,0-1.16.08-3.16.24-6l.24-8.14-.16-3.71c-.05-.74-.11-1.61-.16-2.61-.05-1.05-.08-2.13-.08-3.24,0,1.79.16,0,.47-5.37.32-5.42.47-8.77.47-10.03l-.08-8.93-.16-5.06v-.08c0-.42.29-.63.87-.63l1.11.08c.26,0,.61.03,1.03.08h2.69c.32,0,.47.21.47.63l-.16,4.58h0Zm79.09,48.51c.26.53.39.87.39,1.03,0,.42-.47.63-1.42.63h-5.69c-.21,0-.42-.18-.63-.55-.21-.37-.39-.74-.55-1.11s-.29-.68-.39-.95c-.26-.53-.76-1.74-1.5-3.63-.68-1.9-1.21-3.4-1.58-4.5-.16-.53-.47-1.29-.95-2.29-.47-1.05-.82-1.79-1.03-2.21-.21-.63-.42-1.05-.63-1.26-.16-.21-.42-.32-.79-.32s-.84.03-1.42.08c-.53.05-1.11.11-1.74.16-.42.1-1.74.16-3.95.16-1.53,0-3.03.05-4.5.16-.47.05-1.32.08-2.53.08l-4.19-.08c-.26,0-.47.11-.63.32-.11.21-.18.47-.24.79-.05.26-.11.47-.16.63l-.47,1.98c-.16.74-.37,1.61-.63,2.61-.21.95-.39,1.84-.55,2.69l-.87,3.4-.63,2.29c-.16.63-.32,1.05-.47,1.26-.11.16-.29.24-.55.24h-4.66c-.26,0-.4-.11-.4-.32,0-.11.11-.47.32-1.11.42-1,.79-2,1.11-3,1.95-6.53,3.11-10.8,3.48-12.8.47-2.63,1.45-6.03,2.92-10.19.47-1.79.92-3.42,1.34-4.9.16-.74.4-1.63.71-2.69,1-3.69,2-7.14,3-10.35l1.97-6.32c.42-1.63.95-3.32,1.58-5.06.32-.79.68-.97,1.11-.55.32.21.55.58.71,1.11.16.53.26.9.32,1.11.16.63,1.55,3.79,4.19,9.48,1.05,2.16,2.19,4.98,3.4,8.45.53,1.53,1.97,4.82,4.35,9.88,1.21,2.47,2,4.19,2.37,5.13.84,1.84,3.11,6.32,6.79,13.43l.95,1.98c1.21,2.69,2.13,4.4,2.76,5.13l-.02-.02Zm-20.7-26.07c.37-.05.68-.08.95-.08s.47-.03.63-.08c.16-.05.24-.13.24-.24s-.08-.32-.24-.63c-.26-.47-.87-1.79-1.82-3.95-.95-2.21-1.61-3.87-1.97-4.98-.53-1.26-.95-2.32-1.26-3.16-.26-.84-.47-1.42-.63-1.74-.1-.26-.24-.53-.39-.79-.11-.26-.21-.47-.32-.63-.11-.16-.21-.24-.32-.24-.16,0-.34.4-.55,1.19-.16.79-.29,1.39-.39,1.82-.95,3.05-1.63,5.37-2.05,6.95-.21.79-.53,1.76-.95,2.92-.37,1.11-.63,1.87-.79,2.29-.16.53-.24.95-.24,1.26s.24.47.71.47c1.11,0,2.79-.03,5.06-.08,2.32-.11,3.77-.21,4.35-.32l-.02.02Zm34.36-25.12c.53,1.84,1.21,4.03,2.05,6.56l.55,1.82c.79,2.69,1.42,4.56,1.9,5.61.68,1.58,1.42,3.58,2.21,6,.84,2.53,1.26,3.79,1.26,3.79l.63-1.98c.32-1.16.68-2.29,1.11-3.4l.87-2.37.79-2.05s.26-.68.79-2.05c.42-1.16.74-1.92.95-2.29.42-.84.92-2.19,1.5-4.03.63-1.9,1.11-3.58,1.42-5.06.26-1.05.58-1.71.95-1.97.42-.26.84-.37,1.26-.32h2.76c1.16-.05,2.16-.03,3,.08,1.11.16,1.66.42,1.66.79,0,.05-.05.29-.16.71-.11.26-.24.61-.4,1.03-.11.37-.24.79-.4,1.26-1.26,3.74-2.08,6.03-2.45,6.87-.95,2.32-2.11,5.21-3.48,8.69-1.32,3.48-2.45,6.48-3.4,9.01-.63,1.84-2.05,5.5-4.27,10.98-1.9,4.53-2.92,7.14-3.08,7.82-.21.63-.45,1.66-.71,3.08-.21,1.37-.37,2.26-.47,2.69-.26,1.11-.68,1.63-1.26,1.58h-2.13c-.32.05-1.37.08-3.16.08l-2.92.08c-.63,0-.95-.16-.95-.47,0-.16.03-.29.08-.4.11-.16.18-.32.24-.47l.87-2.37c1.21-3.42,1.84-5.19,1.9-5.29.1-.42.6-1.84,1.5-4.27l.63-1.58c.1-.26.26-.61.47-1.03.21-.47.32-.84.32-1.11.05-.32.03-.61-.08-.87-.11-.16-.34-.92-.71-2.29-.11-.32-.32-1-.63-2.05-.32-1.11-.63-1.95-.95-2.53-.32-.79-.74-2.08-1.26-3.87-.37-1.21-.71-2.29-1.03-3.24-.84-2.32-1.9-5.29-3.16-8.93-1.21-3.63-2.19-6.56-2.92-8.77-.26-.84-.61-1.69-1.03-2.53-.37-.84-.55-1.4-.55-1.66,0-.37.18-.61.55-.71.42-.16,1.03-.26,1.82-.32.21-.05.63-.08,1.26-.08.79,0,1.42.03,1.9.08,1.74,0,2.82.03,3.24.08s.68.16.79.32c.16.16.24.37.24.63s.03.5.08.71h.01Zm68.47,49.53c1.42,1.42,2.13,2.4,2.13,2.92,0,.1-.13.29-.4.55-.47.32-1.66.47-3.55.47-1.37,0-2.24-.11-2.61-.32-.37-.16-.66-.45-.87-.87-.16-.42-.29-.74-.4-.95-.16-.32-.82-1.21-1.98-2.69-1.11-1.53-1.95-2.69-2.53-3.48-2.79-3.58-5.21-6.82-7.27-9.72-1.26-1.79-3.61-4.87-7.03-9.24l-1.26-1.58-5.45-6.79-.32,3.16c-.21,1.58-.26,3.48-.16,5.69.16,1.47.26,5.29.32,11.45.05,6.16.08,10.67.08,13.51,0,.84-.32,1.37-.95,1.58-.63.26-1.37.4-2.21.4-.37,0-.61-.16-.71-.47-.1-.32-.18-.66-.24-1.03v-.71c-.1-.84-.16-2.08-.16-3.71,0-1.05.03-1.84.08-2.37.05-2.84.13-7.79.24-14.85.11-7.11.16-13.48.16-19.12,0-6.06-.08-9.59-.24-10.59-.05-.42-.08-.97-.08-1.66,0-.79.11-1.29.32-1.5.26-.21.63-.32,1.11-.32,1.05,0,2.08.03,3.08.08l8.61.16c3.16,0,6.45.55,9.88,1.66,3.42,1.11,5.13,3.16,5.13,6.16,0,2.84-1.05,5.06-3.16,6.64s-4.48,2.66-7.11,3.24c-2.58.58-4.85.87-6.79.87-.68,0-1.05-.03-1.11-.08.32.32,2.4,3.11,6.24,8.37,11.59,15.54,17.99,23.91,19.2,25.12v.02Zm-31.44-36.66c1.74,0,3.05-.03,3.95-.08,3.05-.11,5.43-.32,7.11-.63,2.42-.42,4.24-1,5.45-1.74,1.26-.74,1.9-1.9,1.9-3.48,0-1.05-.55-1.95-1.66-2.69-1.11-.79-2.45-1.37-4.03-1.74-1.53-.42-2.87-.63-4.03-.63-1.32-.05-3.16-.08-5.53-.08h-2.69l-.47,11.06h0Zm56.61-16.51c5.27,0,9.22,1.53,11.85,4.58,2.63,3,4.32,6.58,5.06,10.74.74,4.11,1.11,8.77,1.11,13.98,0,4.21-.63,8.56-1.9,13.04-1.26,4.42-3.21,8.16-5.85,11.22-2.63,3.05-5.87,4.58-9.72,4.58-7.53,0-12.54-3.16-15.01-9.48-2.48-6.37-3.71-13.19-3.71-20.46s.95-12.61,2.84-16.83c1.95-4.21,4.29-7.16,7.03-8.85,2.79-1.69,5.56-2.53,8.3-2.53h0Zm-.08,38.08c1.42,0,2.48-.79,3.16-2.37.68-1.58,1.03-3.48,1.03-5.69s-.34-3.95-1.03-5.53c-.63-1.58-1.5-2.37-2.61-2.37-1.32,0-2.32.92-3,2.76-.63,1.79-.95,3.74-.95,5.85s.21,3.92.63,5.29c.42,1.37,1.34,2.05,2.76,2.05h0Zm56.01-36.81c3.16,2.11,5.69,4.95,7.58,8.53,1.95,3.58,3.29,7.08,4.03,10.51.79,3.37,1.19,6.03,1.19,7.98,0,3.26-.53,7.06-1.58,11.38-1,4.32-3.19,8.35-6.56,12.09-3.37,3.69-8.24,5.53-14.61,5.53-8.74,0-14.96-5.08-18.64-15.25-1.63-4.58-2.55-9.69-2.76-15.33,0-4.63.98-9.03,2.92-13.19,1.95-4.21,4.5-7.58,7.66-10.11,3.21-2.53,6.51-3.79,9.88-3.79,3.05,0,5.32.08,6.79.24,1.53.16,2.9.63,4.11,1.42h-.01Zm-10.35,51.59c5.58,0,9.74-2.32,12.48-6.95,2.74-4.69,4.11-10.56,4.11-17.62,0-4.32-.66-8.29-1.98-11.93-1.26-3.69-3.08-6.61-5.45-8.77-2.32-2.21-5-3.32-8.06-3.32h-2.13c-1.11,0-2.08.18-2.92.55-.84.37-1.61.92-2.29,1.66-1.74,1.74-3.21,3.34-4.42,4.82-1.16,1.42-2.34,3.56-3.55,6.4-1.16,2.84-1.74,6.14-1.74,9.88,0,4.42.53,8.56,1.58,12.4,1.11,3.79,2.84,6.9,5.21,9.32,2.37,2.37,5.42,3.56,9.16,3.56h0Zm41.05-47.95c.26,1.42.87,3.4,1.82,5.93,1,2.53,1.95,4.74,2.84,6.64.74,1.26,1.71,3.32,2.92,6.16,1.26,2.79,2.16,5,2.69,6.64.32.84.76,1.9,1.34,3.16l1.18,2.84,1.66,3.71c1.53-3,2.63-5.19,3.32-6.56l5.14-10.27,3.55-7.11c1.84-3.79,3.08-6.24,3.71-7.35,1-2.05,2.05-3.95,3.16-5.69,1.11-1.79,1.9-2.69,2.37-2.69.42,0,.63.34.63,1.03,0,.63-.13,1.47-.39,2.53l-.32,1.97c-.21,1.42-.32,7.74-.32,18.96,0,2.47-.08,5.48-.24,9.01-.11,3.53-.21,5.87-.32,7.03-.11,1.37-.16,3.4-.16,6.08l.08,7.66v.4c0,.63-.16.9-.47.79h-.16c-.26,0-.58.03-.95.08-.32.05-.66.08-1.03.08-.21-.05-.37-.18-.47-.4-.05-.21-.08-.58-.08-1.11v-4.66c0-5.37.05-8.53.16-9.48.11-1.11.21-3.16.32-6.16.16-3,.24-5.43.24-7.27-.05-.47-.03-1.95.08-4.42l.08-2.84.16-5.69c-.37.53-.68,1.08-.95,1.66-.53.9-1.03,1.87-1.5,2.92l-.79,1.58c-.89,1.74-1.92,3.79-3.08,6.16-1.16,2.32-2.16,4.29-3,5.93-.95,1.9-2.16,4.35-3.63,7.35-1.42,2.95-2.53,5.29-3.32,7.03-1.37,3.21-2.16,4.82-2.37,4.82-.16,0-.39-.26-.71-.79-.32-.53-.53-.87-.63-1.03-.37-.58-.95-1.79-1.74-3.63-.79-1.9-1.42-3.55-1.9-4.98-.32-.95-1.68-3.61-4.11-7.98-1.9-3.63-2.87-5.53-2.92-5.69-.53-1.05-1.24-2.82-2.13-5.29-.58-1.32-1.03-2.48-1.34-3.48l-.16,3.48-.16,5.37-.16,15.56-.08,12.32c0,.47-.13.76-.39.87-.26.1-.58.16-.95.16-.37-.05-.66-.08-.87-.08l-1.74.08c-.95.11-1.63.16-2.05.16-.79,0-1.26-.16-1.42-.47-.11-.37-.13-1.11-.08-2.21,0-1.74-.03-3.4-.08-4.98l-.16-9.72c0-1.47.05-3,.16-4.58.11-1.63.19-3.08.24-4.35.26-3.79.39-6.45.39-7.98l.16-14.85-.08-4.27c0-1.84.13-2.9.39-3.16.16-.16.34-.24.55-.24.16,0,.39.05.71.16.32.11.71.13,1.18.08.47-.05,1.13-.08,1.98-.08,1,0,1.74.05,2.21.16.47.16.82.55,1.03,1.18.21.58.39,1.26.55,2.05.16.74.29,1.32.39,1.74l.02.02Z"/><path class="cls-1" d="m295.61,0v17.5h-30V0l7.5,7.5,7.5-7.5,7.5,7.5,7.5-7.5Z"/><path class="cls-1" d="m273.61,52c-2.48,0-4.5-2.02-4.5-4.5s2.02-4.5,4.5-4.5,4.5,2.02,4.5,4.5-2.02,4.5-4.5,4.5Zm0-8c-1.93,0-3.5,1.57-3.5,3.5s1.57,3.5,3.5,3.5,3.5-1.57,3.5-3.5-1.57-3.5-3.5-3.5Z"/><circle class="cls-1" cx="273.61" cy="48.5" r="1.5"/><rect class="cls-1" x="267.77" y="49.54" width="2.24" height="1" transform="translate(6.02 125.56) rotate(-26.57)"/><rect class="cls-1" x="267.11" y="47" width="2.24" height="1"/><polygon class="cls-1" points="270.11 53 269.35 52.35 270.8 50.65 271.56 51.3 270.11 53"/><path class="cls-1" d="m286.61,56c-2.48,0-4.5-2.02-4.5-4.5s2.02-4.5,4.5-4.5,4.5,2.02,4.5,4.5-2.02,4.5-4.5,4.5Zm0-8c-1.93,0-3.5,1.57-3.5,3.5s1.57,3.5,3.5,3.5,3.5-1.57,3.5-3.5-1.57-3.5-3.5-3.5Z"/><circle class="cls-1" cx="286.61" cy="51.5" r=".5"/><rect class="cls-1" x="290.86" y="52.96" width="1" height="2.24" transform="translate(112.67 290.48) rotate(-63.43)"/><rect class="cls-1" x="290.88" y="51" width="2.24" height="1"/><polygon class="cls-1" points="290.11 57 288.66 55.3 289.42 54.65 290.87 56.35 290.11 57"/><path class="cls-1" d="m284.11,68.5h-2v-1h2v1Zm-4,0h-2v-1h2v1Zm-4,0h-2v-1h2v1Z"/><rect class="cls-1" x="270.11" y="46.5" width="7" height="1"/></svg>