<?xml version="1.0" encoding="UTF-8"?><svg id="Layer_1" xmlns="http://www.w3.org/2000/svg" width="71.69" height="79.88" viewBox="0 0 71.69 79.88"><defs><style>.cls-1{fill:#d1b192;}</style></defs><path class="cls-1" d="m31.35,23.86c3.16,2.11,5.69,4.95,7.58,8.53,1.95,3.58,3.29,7.08,4.03,10.51.79,3.37,1.19,6.03,1.19,7.98,0,3.26-.53,7.06-1.58,11.38-1,4.32-3.19,8.35-6.56,12.09-3.37,3.69-8.24,5.53-14.61,5.53-8.74,0-14.96-5.08-18.64-15.25-1.63-4.58-2.55-9.69-2.76-15.33,0-4.63.98-9.03,2.92-13.19,1.95-4.21,4.5-7.58,7.66-10.11,3.21-2.53,6.51-3.79,9.88-3.79,3.05,0,5.32.08,6.79.24,1.53.16,2.9.63,4.11,1.42h-.01Zm-10.35,51.59c5.58,0,9.74-2.32,12.48-6.95,2.74-4.69,4.11-10.56,4.11-17.62,0-4.32-.66-8.29-1.98-11.93-1.26-3.69-3.08-6.61-5.45-8.77-2.32-2.21-5-3.32-8.06-3.32h-2.13c-1.11,0-2.08.18-2.92.55-.84.37-1.61.92-2.29,1.66-1.74,1.74-3.21,3.34-4.42,4.82-1.16,1.42-2.34,3.56-3.55,6.4-1.16,2.84-1.74,6.14-1.74,9.88,0,4.42.53,8.56,1.58,12.4,1.11,3.79,2.84,6.9,5.21,9.32,2.37,2.37,5.42,3.56,9.16,3.56h0Z"/><path class="cls-1" d="m36.79,0v17.5H6.79V0l7.5,7.5L21.79,0l7.5,7.5,7.5-7.5Z"/><path class="cls-1" d="m14.79,52c-2.48,0-4.5-2.02-4.5-4.5s2.02-4.5,4.5-4.5,4.5,2.02,4.5,4.5-2.02,4.5-4.5,4.5Zm0-8c-1.93,0-3.5,1.57-3.5,3.5s1.57,3.5,3.5,3.5,3.5-1.57,3.5-3.5-1.57-3.5-3.5-3.5Z"/><circle class="cls-1" cx="14.79" cy="48.5" r="1.5"/><rect class="cls-1" x="8.95" y="49.54" width="2.24" height="1" transform="translate(-21.32 9.79) rotate(-26.57)"/><rect class="cls-1" x="8.29" y="47" width="2.24" height="1"/><polygon class="cls-1" points="11.29 53 10.53 52.35 11.98 50.65 12.74 51.3 11.29 53"/><path class="cls-1" d="m27.79,56c-2.48,0-4.5-2.02-4.5-4.5s2.02-4.5,4.5-4.5,4.5,2.02,4.5,4.5-2.02,4.5-4.5,4.5Zm0-8c-1.93,0-3.5,1.57-3.5,3.5s1.57,3.5,3.5,3.5,3.5-1.57,3.5-3.5-1.57-3.5-3.5-3.5Z"/><circle class="cls-1" cx="27.79" cy="51.5" r=".5"/><rect class="cls-1" x="32.04" y="52.96" width="1" height="2.24" transform="translate(-30.38 58.99) rotate(-63.43)"/><rect class="cls-1" x="32.06" y="51" width="2.24" height="1"/><polygon class="cls-1" points="31.29 57 29.84 55.3 30.6 54.65 32.05 56.35 31.29 57"/><path class="cls-1" d="m25.29,68.5h-2v-1h2v1Zm-4,0h-2v-1h2v1Zm-4,0h-2v-1h2v1Z"/><rect class="cls-1" x="11.29" y="46.5" width="7" height="1"/><path class="cls-1" d="m25.77,79.53s20.95-13.94,12.05-43.82c0-12.51,8.9-18.81,17.16-18.81s16.17,7.89,16.17,16.17-8.63,42.02-45.38,46.45Z"/><path class="cls-1" d="m71.15,14.72s1.82,17.18-1.24,26.14c-4.49-2.69-32.3-10.96-29.03-16.29s9.4-17.9,9.4-17.9l1.63,8.67,8.36-5.94,5.09,11.27,5.8-5.95Z"/></svg>